<svg height="1352" viewBox="0 0 1440 1352" width="1440" xmlns="http://www.w3.org/2000/svg"><g fill="#121212" fill-rule="evenodd" opacity=".5" transform="translate(-506)"><path d="m1819.82927 1238.63122h352v3.49377h-352zm0 15.54726h352v3.49377h-352zm0 15.54727h352v3.49376h-352zm0-46.64179h352v3.49376h-352zm0-15.54727h352v3.49377h-352zm0-15.54726h352v3.49377h-352zm0-15.54726h352v3.49376h-352zm0-15.54726h352v3.49376h-352zm0-15.54727h352v3.49377h-352zm0-15.54726h352v3.49377h-352zm0-15.54726h352v3.49376h-352zm0-15.54727h352v3.49377h-352zm0-15.54726h352v3.49377h-352zm0-15.54726h352v3.49376h-352zm0-15.54726h352v3.49376h-352zm0-15.54727h352v3.49377h-352zm0-15.54726h352v3.49377h-352zm0-15.54726h352v3.49376h-352zm0-15.547266h352v3.493766h-352zm0-15.547263h352v3.493767h-352zm0-15.547263h352v3.493767h-352z" transform="matrix(.70710678 -.70710678 .70710678 .70710678 -204.566309 1738.133242)"/><path d="m1599.82927 1238.63122h352v3.49377h-352zm0 15.54726h352v3.49377h-352zm0 15.54727h352v3.49376h-352zm0-46.64179h352v3.49376h-352zm0-15.54727h352v3.49377h-352zm0-15.54726h352v3.49377h-352zm0-15.54726h352v3.49376h-352zm0-15.54726h352v3.49376h-352zm0-15.54727h352v3.49377h-352zm0-15.54726h352v3.49377h-352zm0-15.54726h352v3.49376h-352zm0-15.54727h352v3.49377h-352zm0-15.54726h352v3.49377h-352zm0-15.54726h352v3.49376h-352zm0-15.54726h352v3.49376h-352zm0-15.54727h352v3.49377h-352zm0-15.54726h352v3.49377h-352zm0-15.54726h352v3.49376h-352zm0-15.547266h352v3.493766h-352zm0-15.547263h352v3.493767h-352zm0-15.547263h352v3.493767h-352z" transform="matrix(.70710678 -.70710678 .70710678 .70710678 -269.002817 1582.56975)"/><path d="m1379.82927 1238.63122h352v3.49377h-352zm0 15.54726h352v3.49377h-352zm0 15.54727h352v3.49376h-352zm0-46.64179h352v3.49376h-352zm0-15.54727h352v3.49377h-352zm0-15.54726h352v3.49377h-352zm0-15.54726h352v3.49376h-352zm0-15.54726h352v3.49376h-352zm0-15.54727h352v3.49377h-352zm0-15.54726h352v3.49377h-352zm0-15.54726h352v3.49376h-352zm0-15.54727h352v3.49377h-352zm0-15.54726h352v3.49377h-352zm0-15.54726h352v3.49376h-352zm0-15.54726h352v3.49376h-352zm0-15.54727h352v3.49377h-352zm0-15.54726h352v3.49377h-352zm0-15.54726h352v3.49376h-352zm0-15.547266h352v3.493766h-352zm0-15.547263h352v3.493767h-352zm0-15.547263h352v3.493767h-352z" transform="matrix(.70710678 -.70710678 .70710678 .70710678 -333.439326 1427.006258)"/><path d="m1159.82927 1238.63122h352v3.49377h-352zm0 15.54726h352v3.49377h-352zm0 15.54727h352v3.49376h-352zm0-46.64179h352v3.49376h-352zm0-15.54727h352v3.49377h-352zm0-15.54726h352v3.49377h-352zm0-15.54726h352v3.49376h-352zm0-15.54726h352v3.49376h-352zm0-15.54727h352v3.49377h-352zm0-15.54726h352v3.49377h-352zm0-15.54726h352v3.49376h-352zm0-15.54727h352v3.49377h-352zm0-15.54726h352v3.49377h-352zm0-15.54726h352v3.49376h-352zm0-15.54726h352v3.49376h-352zm0-15.54727h352v3.49377h-352zm0-15.54726h352v3.49377h-352zm0-15.54726h352v3.49376h-352zm0-15.547266h352v3.493766h-352zm0-15.547263h352v3.493767h-352zm0-15.547263h352v3.493767h-352z" transform="matrix(.70710678 -.70710678 .70710678 .70710678 -397.875834 1271.442766)"/><path d="m939.829268 1238.63122h352.000002v3.49377h-352.000002zm0 15.54726h352.000002v3.49377h-352.000002zm0 15.54727h352.000002v3.49376h-352.000002zm0-46.64179h352.000002v3.49376h-352.000002zm0-15.54727h352.000002v3.49377h-352.000002zm0-15.54726h352.000002v3.49377h-352.000002zm0-15.54726h352.000002v3.49376h-352.000002zm0-15.54726h352.000002v3.49376h-352.000002zm0-15.54727h352.000002v3.49377h-352.000002zm0-15.54726h352.000002v3.49377h-352.000002zm0-15.54726h352.000002v3.49376h-352.000002zm0-15.54727h352.000002v3.49377h-352.000002zm0-15.54726h352.000002v3.49377h-352.000002zm0-15.54726h352.000002v3.49376h-352.000002zm0-15.54726h352.000002v3.49376h-352.000002zm0-15.54727h352.000002v3.49377h-352.000002zm0-15.54726h352.000002v3.49377h-352.000002zm0-15.54726h352.000002v3.49376h-352.000002zm0-15.547266h352.000002v3.493766h-352.000002zm0-15.547263h352.000002v3.493767h-352.000002zm0-15.547263h352.000002v3.493767h-352.000002z" transform="matrix(.70710678 -.70710678 .70710678 .70710678 -462.312342 1115.879274)"/><path d="m719.829268 1238.63122h352.000002v3.49377h-352.000002zm0 15.54726h352.000002v3.49377h-352.000002zm0 15.54727h352.000002v3.49376h-352.000002zm0-46.64179h352.000002v3.49376h-352.000002zm0-15.54727h352.000002v3.49377h-352.000002zm0-15.54726h352.000002v3.49377h-352.000002zm0-15.54726h352.000002v3.49376h-352.000002zm0-15.54726h352.000002v3.49376h-352.000002zm0-15.54727h352.000002v3.49377h-352.000002zm0-15.54726h352.000002v3.49377h-352.000002zm0-15.54726h352.000002v3.49376h-352.000002zm0-15.54727h352.000002v3.49377h-352.000002zm0-15.54726h352.000002v3.49377h-352.000002zm0-15.54726h352.000002v3.49376h-352.000002zm0-15.54726h352.000002v3.49376h-352.000002zm0-15.54727h352.000002v3.49377h-352.000002zm0-15.54726h352.000002v3.49377h-352.000002zm0-15.54726h352.000002v3.49376h-352.000002zm0-15.547266h352.000002v3.493766h-352.000002zm0-15.547263h352.000002v3.493767h-352.000002zm0-15.547263h352.000002v3.493767h-352.000002z" transform="matrix(.70710678 -.70710678 .70710678 .70710678 -526.74885 960.315782)"/><path d="m499.829268 1238.63122h352v3.49377h-352zm0 15.54726h352v3.49377h-352zm0 15.54727h352v3.49376h-352zm0-46.64179h352v3.49376h-352zm0-15.54727h352v3.49377h-352zm0-15.54726h352v3.49377h-352zm0-15.54726h352v3.49376h-352zm0-15.54726h352v3.49376h-352zm0-15.54727h352v3.49377h-352zm0-15.54726h352v3.49377h-352zm0-15.54726h352v3.49376h-352zm0-15.54727h352v3.49377h-352zm0-15.54726h352v3.49377h-352zm0-15.54726h352v3.49376h-352zm0-15.54726h352v3.49376h-352zm0-15.54727h352v3.49377h-352zm0-15.54726h352v3.49377h-352zm0-15.54726h352v3.49376h-352zm0-15.547266h352v3.493766h-352zm0-15.547263h352v3.493767h-352zm0-15.547263h352v3.493767h-352z" transform="matrix(.70710678 -.70710678 .70710678 .70710678 -591.185358 804.752291)"/><path d="m279.829268 1238.63122h352v3.49377h-352zm0 15.54726h352v3.49377h-352zm0 15.54727h352v3.49376h-352zm0-46.64179h352v3.49376h-352zm0-15.54727h352v3.49377h-352zm0-15.54726h352v3.49377h-352zm0-15.54726h352v3.49376h-352zm0-15.54726h352v3.49376h-352zm0-15.54727h352v3.49377h-352zm0-15.54726h352v3.49377h-352zm0-15.54726h352v3.49376h-352zm0-15.54727h352v3.49377h-352zm0-15.54726h352v3.49377h-352zm0-15.54726h352v3.49376h-352zm0-15.54726h352v3.49376h-352zm0-15.54727h352v3.49377h-352zm0-15.54726h352v3.49377h-352zm0-15.54726h352v3.49376h-352zm0-15.547266h352v3.493766h-352zm0-15.547263h352v3.493767h-352zm0-15.547263h352v3.493767h-352z" transform="matrix(.70710678 -.70710678 .70710678 .70710678 -655.621866 649.188799)"/><path d="m1819.82927 1018.63122h352v3.49377h-352zm0 15.54726h352v3.49377h-352zm0 15.54727h352v3.49376h-352zm0-46.64179h352v3.49376h-352zm0-15.547266h352v3.493767h-352zm0-15.547263h352v3.493767h-352zm0-15.547263h352v3.493767h-352zm0-15.547263h352v3.493767h-352zm0-15.547263h352v3.493767h-352zm0-15.547263h352v3.493767h-352zm0-15.547262h352v3.493766h-352zm0-15.547263h352v3.493767h-352zm0-15.547263h352v3.493767h-352zm0-15.547263h352v3.493767h-352zm0-15.547263h352v3.493767h-352zm0-15.547263h352v3.493767h-352zm0-15.547263h352v3.493767h-352zm0-15.547263h352v3.493767h-352zm0-15.547262h352v3.493766h-352zm0-15.547263h352v3.493767h-352zm0-15.547263h352v3.493767h-352z" transform="matrix(.70710678 -.70710678 .70710678 .70710678 -49.002817 1673.696734)"/><path d="m1599.82927 1018.63122h352v3.49377h-352zm0 15.54726h352v3.49377h-352zm0 15.54727h352v3.49376h-352zm0-46.64179h352v3.49376h-352zm0-15.547266h352v3.493767h-352zm0-15.547263h352v3.493767h-352zm0-15.547263h352v3.493767h-352zm0-15.547263h352v3.493767h-352zm0-15.547263h352v3.493767h-352zm0-15.547263h352v3.493767h-352zm0-15.547262h352v3.493766h-352zm0-15.547263h352v3.493767h-352zm0-15.547263h352v3.493767h-352zm0-15.547263h352v3.493767h-352zm0-15.547263h352v3.493767h-352zm0-15.547263h352v3.493767h-352zm0-15.547263h352v3.493767h-352zm0-15.547263h352v3.493767h-352zm0-15.547262h352v3.493766h-352zm0-15.547263h352v3.493767h-352zm0-15.547263h352v3.493767h-352z" transform="matrix(.70710678 -.70710678 .70710678 .70710678 -113.439326 1518.133242)"/><path d="m1379.82927 1018.63122h352v3.49377h-352zm0 15.54726h352v3.49377h-352zm0 15.54727h352v3.49376h-352zm0-46.64179h352v3.49376h-352zm0-15.547266h352v3.493767h-352zm0-15.547263h352v3.493767h-352zm0-15.547263h352v3.493767h-352zm0-15.547263h352v3.493767h-352zm0-15.547263h352v3.493767h-352zm0-15.547263h352v3.493767h-352zm0-15.547262h352v3.493766h-352zm0-15.547263h352v3.493767h-352zm0-15.547263h352v3.493767h-352zm0-15.547263h352v3.493767h-352zm0-15.547263h352v3.493767h-352zm0-15.547263h352v3.493767h-352zm0-15.547263h352v3.493767h-352zm0-15.547263h352v3.493767h-352zm0-15.547262h352v3.493766h-352zm0-15.547263h352v3.493767h-352zm0-15.547263h352v3.493767h-352z" transform="matrix(.70710678 -.70710678 .70710678 .70710678 -177.875834 1362.56975)"/><path d="m1159.82927 1018.63122h352v3.49377h-352zm0 15.54726h352v3.49377h-352zm0 15.54727h352v3.49376h-352zm0-46.64179h352v3.49376h-352zm0-15.547266h352v3.493767h-352zm0-15.547263h352v3.493767h-352zm0-15.547263h352v3.493767h-352zm0-15.547263h352v3.493767h-352zm0-15.547263h352v3.493767h-352zm0-15.547263h352v3.493767h-352zm0-15.547262h352v3.493766h-352zm0-15.547263h352v3.493767h-352zm0-15.547263h352v3.493767h-352zm0-15.547263h352v3.493767h-352zm0-15.547263h352v3.493767h-352zm0-15.547263h352v3.493767h-352zm0-15.547263h352v3.493767h-352zm0-15.547263h352v3.493767h-352zm0-15.547262h352v3.493766h-352zm0-15.547263h352v3.493767h-352zm0-15.547263h352v3.493767h-352z" transform="matrix(.70710678 -.70710678 .70710678 .70710678 -242.312342 1207.006258)"/><path d="m939.829268 1018.63122h352.000002v3.49377h-352.000002zm0 15.54726h352.000002v3.49377h-352.000002zm0 15.54727h352.000002v3.49376h-352.000002zm0-46.64179h352.000002v3.49376h-352.000002zm0-15.547266h352.000002v3.493767h-352.000002zm0-15.547263h352.000002v3.493767h-352.000002zm0-15.547263h352.000002v3.493767h-352.000002zm0-15.547263h352.000002v3.493767h-352.000002zm0-15.547263h352.000002v3.493767h-352.000002zm0-15.547263h352.000002v3.493767h-352.000002zm0-15.547262h352.000002v3.493766h-352.000002zm0-15.547263h352.000002v3.493767h-352.000002zm0-15.547263h352.000002v3.493767h-352.000002zm0-15.547263h352.000002v3.493767h-352.000002zm0-15.547263h352.000002v3.493767h-352.000002zm0-15.547263h352.000002v3.493767h-352.000002zm0-15.547263h352.000002v3.493767h-352.000002zm0-15.547263h352.000002v3.493767h-352.000002zm0-15.547262h352.000002v3.493766h-352.000002zm0-15.547263h352.000002v3.493767h-352.000002zm0-15.547263h352.000002v3.493767h-352.000002z" transform="matrix(.70710678 -.70710678 .70710678 .70710678 -306.74885 1051.442766)"/><path d="m719.829268 1018.63122h352.000002v3.49377h-352.000002zm0 15.54726h352.000002v3.49377h-352.000002zm0 15.54727h352.000002v3.49376h-352.000002zm0-46.64179h352.000002v3.49376h-352.000002zm0-15.547266h352.000002v3.493767h-352.000002zm0-15.547263h352.000002v3.493767h-352.000002zm0-15.547263h352.000002v3.493767h-352.000002zm0-15.547263h352.000002v3.493767h-352.000002zm0-15.547263h352.000002v3.493767h-352.000002zm0-15.547263h352.000002v3.493767h-352.000002zm0-15.547262h352.000002v3.493766h-352.000002zm0-15.547263h352.000002v3.493767h-352.000002zm0-15.547263h352.000002v3.493767h-352.000002zm0-15.547263h352.000002v3.493767h-352.000002zm0-15.547263h352.000002v3.493767h-352.000002zm0-15.547263h352.000002v3.493767h-352.000002zm0-15.547263h352.000002v3.493767h-352.000002zm0-15.547263h352.000002v3.493767h-352.000002zm0-15.547262h352.000002v3.493766h-352.000002zm0-15.547263h352.000002v3.493767h-352.000002zm0-15.547263h352.000002v3.493767h-352.000002z" transform="matrix(.70710678 -.70710678 .70710678 .70710678 -371.185358 895.879274)"/><path d="m499.829268 1018.63122h352v3.49377h-352zm0 15.54726h352v3.49377h-352zm0 15.54727h352v3.49376h-352zm0-46.64179h352v3.49376h-352zm0-15.547266h352v3.493767h-352zm0-15.547263h352v3.493767h-352zm0-15.547263h352v3.493767h-352zm0-15.547263h352v3.493767h-352zm0-15.547263h352v3.493767h-352zm0-15.547263h352v3.493767h-352zm0-15.547262h352v3.493766h-352zm0-15.547263h352v3.493767h-352zm0-15.547263h352v3.493767h-352zm0-15.547263h352v3.493767h-352zm0-15.547263h352v3.493767h-352zm0-15.547263h352v3.493767h-352zm0-15.547263h352v3.493767h-352zm0-15.547263h352v3.493767h-352zm0-15.547262h352v3.493766h-352zm0-15.547263h352v3.493767h-352zm0-15.547263h352v3.493767h-352z" transform="matrix(.70710678 -.70710678 .70710678 .70710678 -435.621866 740.315782)"/><path d="m279.829268 1018.63122h352v3.49377h-352zm0 15.54726h352v3.49377h-352zm0 15.54727h352v3.49376h-352zm0-46.64179h352v3.49376h-352zm0-15.547266h352v3.493767h-352zm0-15.547263h352v3.493767h-352zm0-15.547263h352v3.493767h-352zm0-15.547263h352v3.493767h-352zm0-15.547263h352v3.493767h-352zm0-15.547263h352v3.493767h-352zm0-15.547262h352v3.493766h-352zm0-15.547263h352v3.493767h-352zm0-15.547263h352v3.493767h-352zm0-15.547263h352v3.493767h-352zm0-15.547263h352v3.493767h-352zm0-15.547263h352v3.493767h-352zm0-15.547263h352v3.493767h-352zm0-15.547263h352v3.493767h-352zm0-15.547262h352v3.493766h-352zm0-15.547263h352v3.493767h-352zm0-15.547263h352v3.493767h-352z" transform="matrix(.70710678 -.70710678 .70710678 .70710678 -500.058374 584.752291)"/><path d="m1819.82927 798.63122h352v3.493766h-352zm0 15.547262h352v3.493767h-352zm0 15.547263h352v3.493767h-352zm0-46.641788h352v3.493767h-352zm0-15.547263h352v3.493767h-352zm0-15.547263h352v3.493767h-352zm0-15.547263h352v3.493767h-352zm0-15.547263h352v3.493767h-352zm0-15.547263h352v3.493767h-352zm0-15.547263h352v3.493767h-352zm0-15.547262h352v3.493766h-352zm0-15.547263h352v3.493767h-352zm0-15.547263h352v3.493767h-352zm0-15.547263h352v3.493767h-352zm0-15.547263h352v3.493767h-352zm0-15.547263h352v3.493767h-352zm0-15.547263h352v3.493767h-352zm0-15.547263h352v3.493767h-352zm0-15.547262h352v3.493766h-352zm0-15.547263h352v3.493767h-352zm0-15.547263h352v3.493767h-352z" transform="matrix(.70710678 -.70710678 .70710678 .70710678 106.560674 1609.260225)"/><path d="m1599.82927 798.63122h352v3.493766h-352zm0 15.547262h352v3.493767h-352zm0 15.547263h352v3.493767h-352zm0-46.641788h352v3.493767h-352zm0-15.547263h352v3.493767h-352zm0-15.547263h352v3.493767h-352zm0-15.547263h352v3.493767h-352zm0-15.547263h352v3.493767h-352zm0-15.547263h352v3.493767h-352zm0-15.547263h352v3.493767h-352zm0-15.547262h352v3.493766h-352zm0-15.547263h352v3.493767h-352zm0-15.547263h352v3.493767h-352zm0-15.547263h352v3.493767h-352zm0-15.547263h352v3.493767h-352zm0-15.547263h352v3.493767h-352zm0-15.547263h352v3.493767h-352zm0-15.547263h352v3.493767h-352zm0-15.547262h352v3.493766h-352zm0-15.547263h352v3.493767h-352zm0-15.547263h352v3.493767h-352z" transform="matrix(.70710678 -.70710678 .70710678 .70710678 42.124166 1453.696734)"/><path d="m1379.82927 798.63122h352v3.493766h-352zm0 15.547262h352v3.493767h-352zm0 15.547263h352v3.493767h-352zm0-46.641788h352v3.493767h-352zm0-15.547263h352v3.493767h-352zm0-15.547263h352v3.493767h-352zm0-15.547263h352v3.493767h-352zm0-15.547263h352v3.493767h-352zm0-15.547263h352v3.493767h-352zm0-15.547263h352v3.493767h-352zm0-15.547262h352v3.493766h-352zm0-15.547263h352v3.493767h-352zm0-15.547263h352v3.493767h-352zm0-15.547263h352v3.493767h-352zm0-15.547263h352v3.493767h-352zm0-15.547263h352v3.493767h-352zm0-15.547263h352v3.493767h-352zm0-15.547263h352v3.493767h-352zm0-15.547262h352v3.493766h-352zm0-15.547263h352v3.493767h-352zm0-15.547263h352v3.493767h-352z" transform="matrix(.70710678 -.70710678 .70710678 .70710678 -22.312342 1298.133242)"/><path d="m1159.82927 798.63122h352v3.493766h-352zm0 15.547262h352v3.493767h-352zm0 15.547263h352v3.493767h-352zm0-46.641788h352v3.493767h-352zm0-15.547263h352v3.493767h-352zm0-15.547263h352v3.493767h-352zm0-15.547263h352v3.493767h-352zm0-15.547263h352v3.493767h-352zm0-15.547263h352v3.493767h-352zm0-15.547263h352v3.493767h-352zm0-15.547262h352v3.493766h-352zm0-15.547263h352v3.493767h-352zm0-15.547263h352v3.493767h-352zm0-15.547263h352v3.493767h-352zm0-15.547263h352v3.493767h-352zm0-15.547263h352v3.493767h-352zm0-15.547263h352v3.493767h-352zm0-15.547263h352v3.493767h-352zm0-15.547262h352v3.493766h-352zm0-15.547263h352v3.493767h-352zm0-15.547263h352v3.493767h-352z" transform="matrix(.70710678 -.70710678 .70710678 .70710678 -86.74885 1142.56975)"/><path d="m939.829268 798.63122h352.000002v3.493766h-352.000002zm0 15.547262h352.000002v3.493767h-352.000002zm0 15.547263h352.000002v3.493767h-352.000002zm0-46.641788h352.000002v3.493767h-352.000002zm0-15.547263h352.000002v3.493767h-352.000002zm0-15.547263h352.000002v3.493767h-352.000002zm0-15.547263h352.000002v3.493767h-352.000002zm0-15.547263h352.000002v3.493767h-352.000002zm0-15.547263h352.000002v3.493767h-352.000002zm0-15.547263h352.000002v3.493767h-352.000002zm0-15.547262h352.000002v3.493766h-352.000002zm0-15.547263h352.000002v3.493767h-352.000002zm0-15.547263h352.000002v3.493767h-352.000002zm0-15.547263h352.000002v3.493767h-352.000002zm0-15.547263h352.000002v3.493767h-352.000002zm0-15.547263h352.000002v3.493767h-352.000002zm0-15.547263h352.000002v3.493767h-352.000002zm0-15.547263h352.000002v3.493767h-352.000002zm0-15.547262h352.000002v3.493766h-352.000002zm0-15.547263h352.000002v3.493767h-352.000002zm0-15.547263h352.000002v3.493767h-352.000002z" transform="matrix(.70710678 -.70710678 .70710678 .70710678 -151.185358 987.006258)"/><path d="m719.829268 798.63122h352.000002v3.493766h-352.000002zm0 15.547262h352.000002v3.493767h-352.000002zm0 15.547263h352.000002v3.493767h-352.000002zm0-46.641788h352.000002v3.493767h-352.000002zm0-15.547263h352.000002v3.493767h-352.000002zm0-15.547263h352.000002v3.493767h-352.000002zm0-15.547263h352.000002v3.493767h-352.000002zm0-15.547263h352.000002v3.493767h-352.000002zm0-15.547263h352.000002v3.493767h-352.000002zm0-15.547263h352.000002v3.493767h-352.000002zm0-15.547262h352.000002v3.493766h-352.000002zm0-15.547263h352.000002v3.493767h-352.000002zm0-15.547263h352.000002v3.493767h-352.000002zm0-15.547263h352.000002v3.493767h-352.000002zm0-15.547263h352.000002v3.493767h-352.000002zm0-15.547263h352.000002v3.493767h-352.000002zm0-15.547263h352.000002v3.493767h-352.000002zm0-15.547263h352.000002v3.493767h-352.000002zm0-15.547262h352.000002v3.493766h-352.000002zm0-15.547263h352.000002v3.493767h-352.000002zm0-15.547263h352.000002v3.493767h-352.000002z" transform="matrix(.70710678 -.70710678 .70710678 .70710678 -215.621866 831.442766)"/><path d="m499.829268 798.63122h352v3.493766h-352zm0 15.547262h352v3.493767h-352zm0 15.547263h352v3.493767h-352zm0-46.641788h352v3.493767h-352zm0-15.547263h352v3.493767h-352zm0-15.547263h352v3.493767h-352zm0-15.547263h352v3.493767h-352zm0-15.547263h352v3.493767h-352zm0-15.547263h352v3.493767h-352zm0-15.547263h352v3.493767h-352zm0-15.547262h352v3.493766h-352zm0-15.547263h352v3.493767h-352zm0-15.547263h352v3.493767h-352zm0-15.547263h352v3.493767h-352zm0-15.547263h352v3.493767h-352zm0-15.547263h352v3.493767h-352zm0-15.547263h352v3.493767h-352zm0-15.547263h352v3.493767h-352zm0-15.547262h352v3.493766h-352zm0-15.547263h352v3.493767h-352zm0-15.547263h352v3.493767h-352z" transform="matrix(.70710678 -.70710678 .70710678 .70710678 -280.058374 675.879274)"/><path d="m279.829268 798.63122h352v3.493766h-352zm0 15.547262h352v3.493767h-352zm0 15.547263h352v3.493767h-352zm0-46.641788h352v3.493767h-352zm0-15.547263h352v3.493767h-352zm0-15.547263h352v3.493767h-352zm0-15.547263h352v3.493767h-352zm0-15.547263h352v3.493767h-352zm0-15.547263h352v3.493767h-352zm0-15.547263h352v3.493767h-352zm0-15.547262h352v3.493766h-352zm0-15.547263h352v3.493767h-352zm0-15.547263h352v3.493767h-352zm0-15.547263h352v3.493767h-352zm0-15.547263h352v3.493767h-352zm0-15.547263h352v3.493767h-352zm0-15.547263h352v3.493767h-352zm0-15.547263h352v3.493767h-352zm0-15.547262h352v3.493766h-352zm0-15.547263h352v3.493767h-352zm0-15.547263h352v3.493767h-352z" transform="matrix(.70710678 -.70710678 .70710678 .70710678 -344.494883 520.315782)"/><path d="m1819.82927 578.63122h352v3.493766h-352zm0 15.547262h352v3.493767h-352zm0 15.547263h352v3.493767h-352zm0-46.641788h352v3.493767h-352zm0-15.547263h352v3.493767h-352zm0-15.547263h352v3.493767h-352zm0-15.547263h352v3.493767h-352zm0-15.547263h352v3.493767h-352zm0-15.547263h352v3.493767h-352zm0-15.547263h352v3.493767h-352zm0-15.547262h352v3.493766h-352zm0-15.547263h352v3.493767h-352zm0-15.547263h352v3.493767h-352zm0-15.547263h352v3.493767h-352zm0-15.547263h352v3.493767h-352zm0-15.547263h352v3.493767h-352zm0-15.547263h352v3.493767h-352zm0-15.547263h352v3.493767h-352zm0-15.547262h352v3.493766h-352zm0-15.547263h352v3.493767h-352zm0-15.547263h352v3.493767h-352z" transform="matrix(.70710678 -.70710678 .70710678 .70710678 262.124166 1544.823717)"/><path d="m1599.82927 578.63122h352v3.493766h-352zm0 15.547262h352v3.493767h-352zm0 15.547263h352v3.493767h-352zm0-46.641788h352v3.493767h-352zm0-15.547263h352v3.493767h-352zm0-15.547263h352v3.493767h-352zm0-15.547263h352v3.493767h-352zm0-15.547263h352v3.493767h-352zm0-15.547263h352v3.493767h-352zm0-15.547263h352v3.493767h-352zm0-15.547262h352v3.493766h-352zm0-15.547263h352v3.493767h-352zm0-15.547263h352v3.493767h-352zm0-15.547263h352v3.493767h-352zm0-15.547263h352v3.493767h-352zm0-15.547263h352v3.493767h-352zm0-15.547263h352v3.493767h-352zm0-15.547263h352v3.493767h-352zm0-15.547262h352v3.493766h-352zm0-15.547263h352v3.493767h-352zm0-15.547263h352v3.493767h-352z" transform="matrix(.70710678 -.70710678 .70710678 .70710678 197.687658 1389.260225)"/><path d="m1379.82927 578.63122h352v3.493766h-352zm0 15.547262h352v3.493767h-352zm0 15.547263h352v3.493767h-352zm0-46.641788h352v3.493767h-352zm0-15.547263h352v3.493767h-352zm0-15.547263h352v3.493767h-352zm0-15.547263h352v3.493767h-352zm0-15.547263h352v3.493767h-352zm0-15.547263h352v3.493767h-352zm0-15.547263h352v3.493767h-352zm0-15.547262h352v3.493766h-352zm0-15.547263h352v3.493767h-352zm0-15.547263h352v3.493767h-352zm0-15.547263h352v3.493767h-352zm0-15.547263h352v3.493767h-352zm0-15.547263h352v3.493767h-352zm0-15.547263h352v3.493767h-352zm0-15.547263h352v3.493767h-352zm0-15.547262h352v3.493766h-352zm0-15.547263h352v3.493767h-352zm0-15.547263h352v3.493767h-352z" transform="matrix(.70710678 -.70710678 .70710678 .70710678 133.25115 1233.696734)"/><path d="m1159.82927 578.63122h352v3.493766h-352zm0 15.547262h352v3.493767h-352zm0 15.547263h352v3.493767h-352zm0-46.641788h352v3.493767h-352zm0-15.547263h352v3.493767h-352zm0-15.547263h352v3.493767h-352zm0-15.547263h352v3.493767h-352zm0-15.547263h352v3.493767h-352zm0-15.547263h352v3.493767h-352zm0-15.547263h352v3.493767h-352zm0-15.547262h352v3.493766h-352zm0-15.547263h352v3.493767h-352zm0-15.547263h352v3.493767h-352zm0-15.547263h352v3.493767h-352zm0-15.547263h352v3.493767h-352zm0-15.547263h352v3.493767h-352zm0-15.547263h352v3.493767h-352zm0-15.547263h352v3.493767h-352zm0-15.547262h352v3.493766h-352zm0-15.547263h352v3.493767h-352zm0-15.547263h352v3.493767h-352z" transform="matrix(.70710678 -.70710678 .70710678 .70710678 68.814642 1078.133242)"/><path d="m939.829268 578.63122h352.000002v3.493766h-352.000002zm0 15.547262h352.000002v3.493767h-352.000002zm0 15.547263h352.000002v3.493767h-352.000002zm0-46.641788h352.000002v3.493767h-352.000002zm0-15.547263h352.000002v3.493767h-352.000002zm0-15.547263h352.000002v3.493767h-352.000002zm0-15.547263h352.000002v3.493767h-352.000002zm0-15.547263h352.000002v3.493767h-352.000002zm0-15.547263h352.000002v3.493767h-352.000002zm0-15.547263h352.000002v3.493767h-352.000002zm0-15.547262h352.000002v3.493766h-352.000002zm0-15.547263h352.000002v3.493767h-352.000002zm0-15.547263h352.000002v3.493767h-352.000002zm0-15.547263h352.000002v3.493767h-352.000002zm0-15.547263h352.000002v3.493767h-352.000002zm0-15.547263h352.000002v3.493767h-352.000002zm0-15.547263h352.000002v3.493767h-352.000002zm0-15.547263h352.000002v3.493767h-352.000002zm0-15.547262h352.000002v3.493766h-352.000002zm0-15.547263h352.000002v3.493767h-352.000002zm0-15.547263h352.000002v3.493767h-352.000002z" transform="matrix(.70710678 -.70710678 .70710678 .70710678 4.378134 922.56975)"/><path d="m719.829268 578.63122h352.000002v3.493766h-352.000002zm0 15.547262h352.000002v3.493767h-352.000002zm0 15.547263h352.000002v3.493767h-352.000002zm0-46.641788h352.000002v3.493767h-352.000002zm0-15.547263h352.000002v3.493767h-352.000002zm0-15.547263h352.000002v3.493767h-352.000002zm0-15.547263h352.000002v3.493767h-352.000002zm0-15.547263h352.000002v3.493767h-352.000002zm0-15.547263h352.000002v3.493767h-352.000002zm0-15.547263h352.000002v3.493767h-352.000002zm0-15.547262h352.000002v3.493766h-352.000002zm0-15.547263h352.000002v3.493767h-352.000002zm0-15.547263h352.000002v3.493767h-352.000002zm0-15.547263h352.000002v3.493767h-352.000002zm0-15.547263h352.000002v3.493767h-352.000002zm0-15.547263h352.000002v3.493767h-352.000002zm0-15.547263h352.000002v3.493767h-352.000002zm0-15.547263h352.000002v3.493767h-352.000002zm0-15.547262h352.000002v3.493766h-352.000002zm0-15.547263h352.000002v3.493767h-352.000002zm0-15.547263h352.000002v3.493767h-352.000002z" transform="matrix(.70710678 -.70710678 .70710678 .70710678 -60.058374 767.006258)"/><path d="m499.829268 578.63122h352v3.493766h-352zm0 15.547262h352v3.493767h-352zm0 15.547263h352v3.493767h-352zm0-46.641788h352v3.493767h-352zm0-15.547263h352v3.493767h-352zm0-15.547263h352v3.493767h-352zm0-15.547263h352v3.493767h-352zm0-15.547263h352v3.493767h-352zm0-15.547263h352v3.493767h-352zm0-15.547263h352v3.493767h-352zm0-15.547262h352v3.493766h-352zm0-15.547263h352v3.493767h-352zm0-15.547263h352v3.493767h-352zm0-15.547263h352v3.493767h-352zm0-15.547263h352v3.493767h-352zm0-15.547263h352v3.493767h-352zm0-15.547263h352v3.493767h-352zm0-15.547263h352v3.493767h-352zm0-15.547262h352v3.493766h-352zm0-15.547263h352v3.493767h-352zm0-15.547263h352v3.493767h-352z" transform="matrix(.70710678 -.70710678 .70710678 .70710678 -124.494883 611.442766)"/><path d="m279.829268 578.63122h352v3.493766h-352zm0 15.547262h352v3.493767h-352zm0 15.547263h352v3.493767h-352zm0-46.641788h352v3.493767h-352zm0-15.547263h352v3.493767h-352zm0-15.547263h352v3.493767h-352zm0-15.547263h352v3.493767h-352zm0-15.547263h352v3.493767h-352zm0-15.547263h352v3.493767h-352zm0-15.547263h352v3.493767h-352zm0-15.547262h352v3.493766h-352zm0-15.547263h352v3.493767h-352zm0-15.547263h352v3.493767h-352zm0-15.547263h352v3.493767h-352zm0-15.547263h352v3.493767h-352zm0-15.547263h352v3.493767h-352zm0-15.547263h352v3.493767h-352zm0-15.547263h352v3.493767h-352zm0-15.547262h352v3.493766h-352zm0-15.547263h352v3.493767h-352zm0-15.547263h352v3.493767h-352z" transform="matrix(.70710678 -.70710678 .70710678 .70710678 -188.931391 455.879274)"/><path d="m1819.82927 358.63122h352v3.493766h-352zm0 15.547262h352v3.493767h-352zm0 15.547263h352v3.493767h-352zm0-46.641788h352v3.493767h-352zm0-15.547263h352v3.493767h-352zm0-15.547263h352v3.493767h-352zm0-15.547263h352v3.493767h-352zm0-15.547263h352v3.493767h-352zm0-15.547263h352v3.493767h-352zm0-15.547263h352v3.493767h-352zm0-15.547262h352v3.493766h-352zm0-15.547263h352v3.493767h-352zm0-15.547263h352v3.493767h-352zm0-15.547263h352v3.493767h-352zm0-15.547263h352v3.493767h-352zm0-15.547263h352v3.493767h-352zm0-15.547263h352v3.493767h-352zm0-15.547263h352v3.493767h-352zm0-15.547262h352v3.493766h-352zm0-15.5472633h352v3.4937669h-352zm0-15.5472629h352v3.4937669h-352z" transform="matrix(.70710678 -.70710678 .70710678 .70710678 417.687658 1480.387209)"/><path d="m1599.82927 358.63122h352v3.493766h-352zm0 15.547262h352v3.493767h-352zm0 15.547263h352v3.493767h-352zm0-46.641788h352v3.493767h-352zm0-15.547263h352v3.493767h-352zm0-15.547263h352v3.493767h-352zm0-15.547263h352v3.493767h-352zm0-15.547263h352v3.493767h-352zm0-15.547263h352v3.493767h-352zm0-15.547263h352v3.493767h-352zm0-15.547262h352v3.493766h-352zm0-15.547263h352v3.493767h-352zm0-15.547263h352v3.493767h-352zm0-15.547263h352v3.493767h-352zm0-15.547263h352v3.493767h-352zm0-15.547263h352v3.493767h-352zm0-15.547263h352v3.493767h-352zm0-15.547263h352v3.493767h-352zm0-15.547262h352v3.493766h-352zm0-15.5472633h352v3.4937669h-352zm0-15.5472629h352v3.4937669h-352z" transform="matrix(.70710678 -.70710678 .70710678 .70710678 353.25115 1324.823717)"/><path d="m1379.82927 358.63122h352v3.493766h-352zm0 15.547262h352v3.493767h-352zm0 15.547263h352v3.493767h-352zm0-46.641788h352v3.493767h-352zm0-15.547263h352v3.493767h-352zm0-15.547263h352v3.493767h-352zm0-15.547263h352v3.493767h-352zm0-15.547263h352v3.493767h-352zm0-15.547263h352v3.493767h-352zm0-15.547263h352v3.493767h-352zm0-15.547262h352v3.493766h-352zm0-15.547263h352v3.493767h-352zm0-15.547263h352v3.493767h-352zm0-15.547263h352v3.493767h-352zm0-15.547263h352v3.493767h-352zm0-15.547263h352v3.493767h-352zm0-15.547263h352v3.493767h-352zm0-15.547263h352v3.493767h-352zm0-15.547262h352v3.493766h-352zm0-15.5472633h352v3.4937669h-352zm0-15.5472629h352v3.4937669h-352z" transform="matrix(.70710678 -.70710678 .70710678 .70710678 288.814642 1169.260225)"/><path d="m1159.82927 358.63122h352v3.493766h-352zm0 15.547262h352v3.493767h-352zm0 15.547263h352v3.493767h-352zm0-46.641788h352v3.493767h-352zm0-15.547263h352v3.493767h-352zm0-15.547263h352v3.493767h-352zm0-15.547263h352v3.493767h-352zm0-15.547263h352v3.493767h-352zm0-15.547263h352v3.493767h-352zm0-15.547263h352v3.493767h-352zm0-15.547262h352v3.493766h-352zm0-15.547263h352v3.493767h-352zm0-15.547263h352v3.493767h-352zm0-15.547263h352v3.493767h-352zm0-15.547263h352v3.493767h-352zm0-15.547263h352v3.493767h-352zm0-15.547263h352v3.493767h-352zm0-15.547263h352v3.493767h-352zm0-15.547262h352v3.493766h-352zm0-15.5472633h352v3.4937669h-352zm0-15.5472629h352v3.4937669h-352z" transform="matrix(.70710678 -.70710678 .70710678 .70710678 224.378134 1013.696734)"/><path d="m939.829268 358.63122h352.000002v3.493766h-352.000002zm0 15.547262h352.000002v3.493767h-352.000002zm0 15.547263h352.000002v3.493767h-352.000002zm0-46.641788h352.000002v3.493767h-352.000002zm0-15.547263h352.000002v3.493767h-352.000002zm0-15.547263h352.000002v3.493767h-352.000002zm0-15.547263h352.000002v3.493767h-352.000002zm0-15.547263h352.000002v3.493767h-352.000002zm0-15.547263h352.000002v3.493767h-352.000002zm0-15.547263h352.000002v3.493767h-352.000002zm0-15.547262h352.000002v3.493766h-352.000002zm0-15.547263h352.000002v3.493767h-352.000002zm0-15.547263h352.000002v3.493767h-352.000002zm0-15.547263h352.000002v3.493767h-352.000002zm0-15.547263h352.000002v3.493767h-352.000002zm0-15.547263h352.000002v3.493767h-352.000002zm0-15.547263h352.000002v3.493767h-352.000002zm0-15.547263h352.000002v3.493767h-352.000002zm0-15.547262h352.000002v3.493766h-352.000002zm0-15.5472633h352.000002v3.4937669h-352.000002zm0-15.5472629h352.000002v3.4937669h-352.000002z" transform="matrix(.70710678 -.70710678 .70710678 .70710678 159.941626 858.133242)"/><path d="m719.829268 358.63122h352.000002v3.493766h-352.000002zm0 15.547262h352.000002v3.493767h-352.000002zm0 15.547263h352.000002v3.493767h-352.000002zm0-46.641788h352.000002v3.493767h-352.000002zm0-15.547263h352.000002v3.493767h-352.000002zm0-15.547263h352.000002v3.493767h-352.000002zm0-15.547263h352.000002v3.493767h-352.000002zm0-15.547263h352.000002v3.493767h-352.000002zm0-15.547263h352.000002v3.493767h-352.000002zm0-15.547263h352.000002v3.493767h-352.000002zm0-15.547262h352.000002v3.493766h-352.000002zm0-15.547263h352.000002v3.493767h-352.000002zm0-15.547263h352.000002v3.493767h-352.000002zm0-15.547263h352.000002v3.493767h-352.000002zm0-15.547263h352.000002v3.493767h-352.000002zm0-15.547263h352.000002v3.493767h-352.000002zm0-15.547263h352.000002v3.493767h-352.000002zm0-15.547263h352.000002v3.493767h-352.000002zm0-15.547262h352.000002v3.493766h-352.000002zm0-15.5472633h352.000002v3.4937669h-352.000002zm0-15.5472629h352.000002v3.4937669h-352.000002z" transform="matrix(.70710678 -.70710678 .70710678 .70710678 95.505117 702.56975)"/><path d="m499.829268 358.63122h352v3.493766h-352zm0 15.547262h352v3.493767h-352zm0 15.547263h352v3.493767h-352zm0-46.641788h352v3.493767h-352zm0-15.547263h352v3.493767h-352zm0-15.547263h352v3.493767h-352zm0-15.547263h352v3.493767h-352zm0-15.547263h352v3.493767h-352zm0-15.547263h352v3.493767h-352zm0-15.547263h352v3.493767h-352zm0-15.547262h352v3.493766h-352zm0-15.547263h352v3.493767h-352zm0-15.547263h352v3.493767h-352zm0-15.547263h352v3.493767h-352zm0-15.547263h352v3.493767h-352zm0-15.547263h352v3.493767h-352zm0-15.547263h352v3.493767h-352zm0-15.547263h352v3.493767h-352zm0-15.547262h352v3.493766h-352zm0-15.5472633h352v3.4937669h-352zm0-15.5472629h352v3.4937669h-352z" transform="matrix(.70710678 -.70710678 .70710678 .70710678 31.068609 547.006258)"/><path d="m279.829268 358.63122h352v3.493766h-352zm0 15.547262h352v3.493767h-352zm0 15.547263h352v3.493767h-352zm0-46.641788h352v3.493767h-352zm0-15.547263h352v3.493767h-352zm0-15.547263h352v3.493767h-352zm0-15.547263h352v3.493767h-352zm0-15.547263h352v3.493767h-352zm0-15.547263h352v3.493767h-352zm0-15.547263h352v3.493767h-352zm0-15.547262h352v3.493766h-352zm0-15.547263h352v3.493767h-352zm0-15.547263h352v3.493767h-352zm0-15.547263h352v3.493767h-352zm0-15.547263h352v3.493767h-352zm0-15.547263h352v3.493767h-352zm0-15.547263h352v3.493767h-352zm0-15.547263h352v3.493767h-352zm0-15.547262h352v3.493766h-352zm0-15.5472633h352v3.4937669h-352zm0-15.5472629h352v3.4937669h-352z" transform="matrix(.70710678 -.70710678 .70710678 .70710678 -33.367899 391.442766)"/></g></svg>