<svg height="329" viewBox="0 0 1249 329" width="1249" xmlns="http://www.w3.org/2000/svg"><g fill="#444" fill-rule="evenodd"><path d="m0 0h1222.3v28.5h-1222.3z"/><path d="m26.5 300.4h1154.4v28.5h-1154.4z"/><path d="m0 0h28.5v328.9h-28.5z"/><path d="m1193.8 0h28.5v150.2h-28.5z"/><path d="m96.5 196.7 26.2-6.7c1.9 18.3 14.9 26.4 30.5 26.4 15.7 0 24.2-8.3 24.2-18.7 0-30.5-71.1-20.3-71.1-68.1 0-26 21.1-40.6 45.9-40.6 18.1 0 34.6 7.9 44.7 25.8l-21.9 13.4c-5.1-10-13.8-15.7-23.7-15.7-10.4 0-18.5 6.3-18.5 15.7 0 27.7 71.1 18.3 71.1 67.1 0 27.8-23 44.5-51.1 44.5-26.1.1-51.6-14.2-56.3-43.1z"/><path d="m314.1 91h46.1c29.9 0 51.9 15.7 51.9 43.5 0 27.5-21.9 42.5-51.9 42.5h-19.9v60.9h-26.2zm46.1 61.4c18.1 0 25.7-6.2 25.7-17.9 0-12-7.8-18.8-25.7-18.8h-19.9v36.7z" fill-rule="nonzero"/><path d="m581.3 91h19.8l58.5 146.9h-28.5l-11.3-31.9h-57.1l-11.4 31.9h-28.8zm29.5 92.4-19.5-53.7-19.7 53.7z" fill-rule="nonzero"/><path d="m769.9 164.6c0-40.2 22.6-75.8 70.9-75.8 29.1 0 52.4 14.8 64.3 42.2l-24.6 9.8c-5.5-19.3-20.7-26.8-39.8-26.8-31.1 0-44.5 22.4-44.5 49.6 0 29.2 13.4 51.6 44.9 51.6 18.9 0 31.9-7.5 39.8-27.2l24.4 10c-11.6 27.5-35 42.3-64.3 42.3-48.3-.1-71.1-35.4-71.1-75.7z"/><path d="m1015.7 91h97.7v24.2h-71.3v37.1h66.4v24.2h-66.4v36.5h71.3v25h-97.7z"/><path d="m1191.5 289.4h-77.4v-17.5l79.7-111.3h28.4v101.3h25.9v27.5h-25.9v39.6h-30.7zm0-27.5v-54.9l-39.1 54.9z" fill-rule="nonzero"/></g></svg>