
<svg width="139px" height="38px" viewBox="0 0 139 38" version="1.1" xmlns="http://www.w3.org/2000/svg" xmlns:xlink="http://www.w3.org/1999/xlink">
    <!-- Generator: Sketch 51.1 (57501) - http://www.bohemiancoding.com/sketch -->
    <desc>Created with Sketch.</desc>
    <defs></defs>
    <g id="website" stroke="none" stroke-width="1" fill="none" fill-rule="evenodd">
        <g id="menu_yellow" transform="translate(-530.000000, -287.000000)" stroke="#121212">
            <g id="text_after" transform="translate(487.000000, 197.000000)">
                <g id="2" transform="translate(0.000000, 88.000000)">
                    <path d="M60.65,3 L61.15,3 L77.8,38.75 L71.95,38.75 L67.85,29.55 L53.95,29.55 L49.85,38.75 L44,38.75 L60.65,3 Z M58.2,25.1 L63.6,25.1 C64.866673,25.1 65.799997,25.133333 66.4,25.2 L66.45,25.15 C65.8833305,24.4499965 65.3500025,23.500006 64.85,22.3 L62.25,16.15 C61.516663,14.3833245 61.1000005,13.0500045 61,12.15 L60.8,12.15 C60.6999995,13.0500045 60.283337,14.3833245 59.55,16.15 L56.95,22.3 C56.4499975,23.500006 55.9166695,24.4499965 55.35,25.15 L55.4,25.2 C56.000003,25.133333 56.933327,25.1 58.2,25.1 Z M101.4,6.4 C103.366676,8.1666755 104.35,10.5999845 104.35,13.7 C104.35,16.766682 103.391676,19.1833245 101.475,20.95 C99.5583237,22.7166755 96.9833495,23.6 93.75,23.6 L88.45,23.6 C87.916664,23.6 87.5000015,23.533334 87.2,23.4 L87.1,23.5 C87.2000005,23.7333345 87.25,24.149997 87.25,24.75 L87.25,38.75 L82.05,38.75 L82.05,3.75 L93.3,3.75 C96.7333505,3.75 99.4333235,4.6333245 101.4,6.4 Z M87.1,8.55 C87.2000005,8.7833345 87.25,9.2166635 87.25,9.85 L87.25,17.5 C87.25,18.100003 87.2000005,18.533332 87.1,18.8 L87.2,18.9 C87.5000015,18.766666 87.916664,18.7 88.45,18.7 L93.35,18.7 C95.083342,18.7 96.416662,18.2583378 97.35,17.375 C98.283338,16.4916622 98.75,15.2666745 98.75,13.7 C98.75,12.1333255 98.283338,10.9000045 97.35,10 C96.416662,9.0999955 95.083342,8.65 93.35,8.65 L88.45,8.65 C87.916664,8.65 87.5000015,8.583334 87.2,8.45 L87.1,8.55 Z M128.7,6.4 C130.666676,8.1666755 131.65,10.5999845 131.65,13.7 C131.65,16.766682 130.691676,19.1833245 128.775,20.95 C126.858324,22.7166755 124.283349,23.6 121.05,23.6 L115.75,23.6 C115.216664,23.6 114.800001,23.533334 114.5,23.4 L114.4,23.5 C114.5,23.7333345 114.55,24.149997 114.55,24.75 L114.55,38.75 L109.35,38.75 L109.35,3.75 L120.6,3.75 C124.03335,3.75 126.733323,4.6333245 128.7,6.4 Z M114.4,8.55 C114.500001,8.7833345 114.55,9.2166635 114.55,9.85 L114.55,17.5 C114.55,18.100003 114.500001,18.533332 114.4,18.8 L114.5,18.9 C114.800002,18.766666 115.216664,18.7 115.75,18.7 L120.65,18.7 C122.383342,18.7 123.716662,18.2583378 124.65,17.375 C125.583338,16.4916622 126.05,15.2666745 126.05,13.7 C126.05,12.1333255 125.583338,10.9000045 124.65,10 C123.716662,9.0999955 122.383342,8.65 120.65,8.65 L115.75,8.65 C115.216664,8.65 114.800002,8.583334 114.5,8.45 L114.4,8.55 Z M141.85,32.6 C141.85,33.1666695 141.800001,33.583332 141.7,33.85 L141.8,33.95 C142.100002,33.816666 142.516664,33.75 143.05,33.75 L156.85,33.75 L156.85,38.75 L136.65,38.75 L136.65,3.75 L141.85,3.75 L141.85,32.6 Z M169.45,24.75 L169.45,38.75 L164.25,38.75 L164.25,24.75 L153.1,3.75 L159.25,3.75 L164.4,14.5 C165.333338,16.4666765 165.924999,17.749997 166.175,18.35 C166.425001,18.950003 166.633332,19.683329 166.8,20.55 L166.9,20.55 C167.066667,19.683329 167.274999,18.950003 167.525,18.35 C167.775001,17.749997 168.366662,16.4666765 169.3,14.5 L174.45,3.75 L180.6,3.75 L169.45,24.75 Z" id="Apply"></path>
                </g>
            </g>
        </g>
    </g>
</svg>