<svg height="11" viewBox="0 0 12 11" width="12" xmlns="http://www.w3.org/2000/svg"><path d="m10.0604167.94004167c-.60637503-.60591667-1.4116667-.94004167-2.26875003-.94004167-.85708334 0-1.662375.334125-2.26829167.93958333-.00779167.00779167-.01558333.01558334-.023375.02383334-.00779167-.00825-.015125-.01558334-.02291667-.023375-.606375-.60591667-1.41166666-.94004167-2.26875-.94004167-.85708333 0-1.662375.334125-2.26875.94004167-.606375.60591666-.93958333 1.41120833-.93958333 2.26829166 0 .85708334.33366667 1.662375.93958333 2.26829167l4.56041667 4.5604167 4.5604167-4.5604167c.6059166-.60591667.9395833-1.41120833.9395833-2.26829167 0-.856625-.3336667-1.662375-.9395833-2.26829166z" fill="#ff2800" transform="translate(.9 .1)"/></svg>