
<svg width="100px" height="37px" viewBox="0 0 100 37" version="1.1" xmlns="http://www.w3.org/2000/svg" xmlns:xlink="http://www.w3.org/1999/xlink">
    <!-- Generator: Sketch 51.1 (57501) - http://www.bohemiancoding.com/sketch -->
    <desc>Created with Sketch.</desc>
    <defs></defs>
    <g id="website" stroke="none" stroke-width="1" fill="none" fill-rule="evenodd">
        <g id="menu_yellow" transform="translate(-530.000000, -375.000000)" stroke="#121212">
            <g id="text_after" transform="translate(487.000000, 197.000000)">
                <g id="3" transform="translate(0.000000, 175.000000)">
                    <path d="M72.1,39 L66.9,39 L66.9,24.15 C66.9,23.549997 66.9499995,23.1333345 67.05,22.9 L66.95,22.8 C66.6499985,22.933334 66.233336,23 65.7,23 L50.4,23 C49.866664,23 49.4500015,22.933334 49.15,22.8 L49.05,22.9 C49.1500005,23.1333345 49.2,23.549997 49.2,24.15 L49.2,39 L44,39 L44,4 L49.2,4 L49.2,16.85 C49.2,17.4166695 49.1500005,17.833332 49.05,18.1 L49.15,18.2 C49.4500015,18.066666 49.866664,18 50.4,18 L65.7,18 C66.233336,18 66.6499985,18.066666 66.95,18.2 L67.05,18.1 C66.9499995,17.833332 66.9,17.4166695 66.9,16.85 L66.9,4 L72.1,4 L72.1,39 Z M84.8,39 L79.6,39 L79.6,4 L84.8,4 L84.8,39 Z M111.6,6.6 C113.533343,8.333342 114.5,10.7166515 114.5,13.75 C114.5,15.550009 114.058338,17.149993 113.175,18.55 C112.291662,19.950007 111.175007,21.0333295 109.825,21.8 C108.474993,22.5666705 107.13334,22.95 105.8,22.95 C105.233331,22.95 104.650003,22.8666675 104.05,22.7 L104.05,22.9 C104.71667,23.1333345 105.324997,23.4666645 105.875,23.9 C106.425003,24.3333355 107.016664,24.949996 107.65,25.75 L118.25,39 L111.5,39 L99.15,23.35 L98.65,23.35 C98.116664,23.35 97.716668,23.283334 97.45,23.15 L97.35,23.25 C97.4500005,23.5500015 97.5,23.999997 97.5,24.6 L97.5,39 L92.3,39 L92.3,4 L103.75,4 C107.050016,4 109.666657,4.866658 111.6,6.6 Z M97.35,8.8 C97.4500005,9.0333345 97.5,9.4666635 97.5,10.1 L97.5,17.2 C97.5,17.7666695 97.4500005,18.183332 97.35,18.45 L97.45,18.55 C97.7500015,18.416666 98.166664,18.35 98.7,18.35 L103.8,18.35 C105.433341,18.35 106.691662,17.9416707 107.575,17.125 C108.458338,16.3083292 108.9,15.166674 108.9,13.7 C108.9,12.2666595 108.466671,11.1083378 107.6,10.225 C106.733329,9.34166225 105.466675,8.9 103.8,8.9 L98.7,8.9 C98.166664,8.9 97.7500015,8.833334 97.45,8.7 L97.35,8.8 Z M141.35,8.9 L127.9,8.9 C127.366664,8.9 126.950001,8.833334 126.65,8.7 L126.55,8.8 C126.650001,9.0333345 126.7,9.4666635 126.7,10.1 L126.7,16.35 C126.7,16.9166695 126.650001,17.333332 126.55,17.6 L126.65,17.7 C126.950001,17.566666 127.366664,17.5 127.9,17.5 L139.7,17.5 L139.7,22.4 L127.9,22.4 C127.366664,22.4 126.950001,22.333334 126.65,22.2 L126.55,22.3 C126.650001,22.5333345 126.7,22.9666635 126.7,23.6 L126.7,32.9 C126.7,33.500003 126.650001,33.933332 126.55,34.2 L126.65,34.3 C126.950001,34.166666 127.366664,34.1 127.9,34.1 L141.55,34.1 L141.55,39 L121.5,39 L121.5,4 L141.35,4 L141.35,8.9 Z" id="Hire"></path>
                </g>
            </g>
        </g>
    </g>
</svg>