
<svg width="179px" height="38px" viewBox="0 0 179 38" version="1.1" xmlns="http://www.w3.org/2000/svg" xmlns:xlink="http://www.w3.org/1999/xlink">
    <!-- Generator: Sketch 51.1 (57501) - http://www.bohemiancoding.com/sketch -->
    <desc>Created with Sketch.</desc>
    <defs></defs>
    <g id="website" stroke="none" stroke-width="1" fill="none" fill-rule="evenodd">
        <g id="menu_yellow" transform="translate(-530.000000, -549.000000)" stroke="#121212">
            <g id="text_after" transform="translate(487.000000, 197.000000)">
                <g id="5" transform="translate(0.000000, 350.000000)">
                    <path d="M65.5,5.35 L63.15,10.3 C62.0499945,9.6666635 60.8833395,9.1666685 59.65,8.8 C58.4166605,8.4333315 57.233339,8.25 56.1,8.25 C53.43332,8.25 52.1,9.24999 52.1,11.25 C52.1,12.0166705 52.3083313,12.7249968 52.725,13.375 C53.1416688,14.0250032 53.8333285,14.716663 54.8,15.45 L61.05,20.25 C62.916676,21.6833405 64.2916623,23.133326 65.175,24.6 C66.0583377,26.066674 66.5,27.766657 66.5,29.7 C66.5,32.833349 65.4833435,35.2499915 63.45,36.95 C61.4166565,38.6500085 58.700017,39.5 55.3,39.5 C53.1999895,39.5 51.1666765,39.200003 49.2,38.6 C47.2333235,37.999997 45.5000075,37.2166715 44,36.25 L46.35,31.35 C49.6500165,33.2500095 52.6499865,34.2 55.35,34.2 C57.150009,34.2 58.5249953,33.8083373 59.475,33.025 C60.4250047,32.2416627 60.9,31.2333395 60.9,30 C60.9,29.066662 60.6166695,28.1833375 60.05,27.35 C59.4833305,26.5166625 58.5500065,25.600005 57.25,24.6 L51.3,19.9 C49.699992,18.633327 48.4916707,17.33334 47.675,16 C46.8583292,14.66666 46.45,13.1500085 46.45,11.45 C46.45,8.849987 47.316658,6.79167425 49.05,5.275 C50.783342,3.75832575 53.183318,3 56.25,3 C59.3500155,3 62.433318,3.7833255 65.5,5.35 Z M92.5,8.75 L83.8,8.75 C83.266664,8.75 82.8500015,8.683334 82.55,8.55 L82.45,8.65 C82.5500005,8.8833345 82.6,9.299997 82.6,9.9 L82.6,38.75 L77.4,38.75 L77.4,9.9 C77.4,9.299997 77.4499995,8.8833345 77.55,8.65 L77.45,8.55 C77.1499985,8.683334 76.733336,8.75 76.2,8.75 L67.5,8.75 L67.5,3.75 L92.5,3.75 L92.5,8.75 Z M119.65,5.35 C122.416681,6.9166745 124.583326,9.0833195 126.15,11.85 C127.716674,14.6166805 128.5,17.7499825 128.5,21.25 C128.5,24.7500175 127.716674,27.8833195 126.15,30.65 C124.583326,33.4166805 122.416681,35.5833255 119.65,37.15 C116.883319,38.7166745 113.750017,39.5 110.25,39.5 C106.749983,39.5 103.616681,38.7166745 100.85,37.15 C98.0833195,35.5833255 95.9166745,33.4166805 94.35,30.65 C92.7833255,27.8833195 92,24.7500175 92,21.25 C92,17.7499825 92.7833255,14.6166805 94.35,11.85 C95.9166745,9.0833195 98.0833195,6.9166745 100.85,5.35 C103.616681,3.7833255 106.749983,3 110.25,3 C113.750017,3 116.883319,3.7833255 119.65,5.35 Z M103.75,9.95 C101.84999,11.0500055 100.366672,12.5833235 99.3,14.55 C98.233328,16.5166765 97.7,18.7499875 97.7,21.25 C97.7,23.7500125 98.233328,25.9833235 99.3,27.95 C100.366672,29.9166765 101.84999,31.4499945 103.75,32.55 C105.65001,33.6500055 107.816654,34.2 110.25,34.2 C112.683346,34.2 114.849991,33.6500055 116.75,32.55 C118.650009,31.4499945 120.133328,29.9166765 121.2,27.95 C122.266672,25.9833235 122.8,23.7500125 122.8,21.25 C122.8,18.7499875 122.266672,16.5166765 121.2,14.55 C120.133328,12.5833235 118.650009,11.0500055 116.75,9.95 C114.849991,8.8499945 112.683346,8.3 110.25,8.3 C107.816654,8.3 105.65001,8.8499945 103.75,9.95 Z M153.3,6.35 C155.233343,8.083342 156.2,10.4666515 156.2,13.5 C156.2,15.300009 155.758338,16.899993 154.875,18.3 C153.991662,19.700007 152.875007,20.7833295 151.525,21.55 C150.174993,22.3166705 148.83334,22.7 147.5,22.7 C146.933331,22.7 146.350003,22.6166675 145.75,22.45 L145.75,22.65 C146.41667,22.8833345 147.024997,23.2166645 147.575,23.65 C148.125003,24.0833355 148.716664,24.699996 149.35,25.5 L159.95,38.75 L153.2,38.75 L140.85,23.1 L140.35,23.1 C139.816664,23.1 139.416668,23.033334 139.15,22.9 L139.05,23 C139.150001,23.3000015 139.2,23.749997 139.2,24.35 L139.2,38.75 L134,38.75 L134,3.75 L145.45,3.75 C148.750017,3.75 151.366657,4.616658 153.3,6.35 Z M139.05,8.55 C139.15,8.7833345 139.2,9.2166635 139.2,9.85 L139.2,16.95 C139.2,17.5166695 139.15,17.933332 139.05,18.2 L139.15,18.3 C139.450001,18.166666 139.866664,18.1 140.4,18.1 L145.5,18.1 C147.133341,18.1 148.391662,17.6916708 149.275,16.875 C150.158338,16.0583292 150.6,14.916674 150.6,13.45 C150.6,12.0166595 150.166671,10.8583377 149.3,9.975 C148.433329,9.09166225 147.166675,8.65 145.5,8.65 L140.4,8.65 C139.866664,8.65 139.450001,8.583334 139.15,8.45 L139.05,8.55 Z M168.4,38.75 L163.2,38.75 L163.2,3.75 L168.4,3.75 L168.4,38.75 Z M195.75,8.65 L182.3,8.65 C181.766664,8.65 181.350001,8.583334 181.05,8.45 L180.95,8.55 C181.050001,8.7833345 181.1,9.2166635 181.1,9.85 L181.1,16.1 C181.1,16.6666695 181.050001,17.083332 180.95,17.35 L181.05,17.45 C181.350001,17.316666 181.766664,17.25 182.3,17.25 L194.1,17.25 L194.1,22.15 L182.3,22.15 C181.766664,22.15 181.350001,22.083334 181.05,21.95 L180.95,22.05 C181.050001,22.2833345 181.1,22.7166635 181.1,23.35 L181.1,32.65 C181.1,33.250003 181.050001,33.683332 180.95,33.95 L181.05,34.05 C181.350001,33.916666 181.766664,33.85 182.3,33.85 L195.95,33.85 L195.95,38.75 L175.9,38.75 L175.9,3.75 L195.75,3.75 L195.75,8.65 Z M220.2,5.35 L217.85,10.3 C216.749994,9.6666635 215.583339,9.1666685 214.35,8.8 C213.11666,8.4333315 211.933339,8.25 210.8,8.25 C208.13332,8.25 206.8,9.24999 206.8,11.25 C206.8,12.0166705 207.008331,12.7249968 207.425,13.375 C207.841669,14.0250032 208.533328,14.716663 209.5,15.45 L215.75,20.25 C217.616676,21.6833405 218.991662,23.133326 219.875,24.6 C220.758338,26.066674 221.2,27.766657 221.2,29.7 C221.2,32.833349 220.183344,35.2499915 218.15,36.95 C216.116657,38.6500085 213.400017,39.5 210,39.5 C207.89999,39.5 205.866676,39.200003 203.9,38.6 C201.933324,37.999997 200.200007,37.2166715 198.7,36.25 L201.05,31.35 C204.350017,33.2500095 207.349986,34.2 210.05,34.2 C211.850009,34.2 213.224995,33.8083373 214.175,33.025 C215.125005,32.2416627 215.6,31.2333395 215.6,30 C215.6,29.066662 215.31667,28.1833375 214.75,27.35 C214.18333,26.5166625 213.250006,25.600005 211.95,24.6 L206,19.9 C204.399992,18.633327 203.191671,17.33334 202.375,16 C201.558329,14.66666 201.15,13.1500085 201.15,11.45 C201.15,8.849987 202.016658,6.79167425 203.75,5.275 C205.483342,3.75832575 207.883318,3 210.95,3 C214.050016,3 217.133318,3.7833255 220.2,5.35 Z" id="Stories"></path>
                </g>
            </g>
        </g>
    </g>
</svg>