
<svg width="412px" height="38px" viewBox="0 0 412 38" version="1.1" xmlns="http://www.w3.org/2000/svg" xmlns:xlink="http://www.w3.org/1999/xlink">
    <!-- Generator: Sketch 51.1 (57501) - http://www.bohemiancoding.com/sketch -->
    <desc>Created with Sketch.</desc>
    <defs></defs>
    <g id="website" stroke="none" stroke-width="1" fill="none" fill-rule="evenodd">
        <g id="menu_yellow" transform="translate(-530.000000, -461.000000)" stroke="#121212">
            <g id="text_after" transform="translate(487.000000, 197.000000)">
                <g id="4" transform="translate(0.000000, 262.000000)">
                    <path d="M69,8.75 L60.3,8.75 C59.766664,8.75 59.3500015,8.683334 59.05,8.55 L58.95,8.65 C59.0500005,8.8833345 59.1,9.299997 59.1,9.9 L59.1,38.75 L53.9,38.75 L53.9,9.9 C53.9,9.299997 53.9499995,8.8833345 54.05,8.65 L53.95,8.55 C53.6499985,8.683334 53.233336,8.75 52.7,8.75 L44,8.75 L44,3.75 L69,3.75 L69,8.75 Z M93.1,8.65 L79.65,8.65 C79.116664,8.65 78.7000015,8.583334 78.4,8.45 L78.3,8.55 C78.4000005,8.7833345 78.45,9.2166635 78.45,9.85 L78.45,16.1 C78.45,16.6666695 78.4000005,17.083332 78.3,17.35 L78.4,17.45 C78.7000015,17.316666 79.116664,17.25 79.65,17.25 L91.45,17.25 L91.45,22.15 L79.65,22.15 C79.116664,22.15 78.7000015,22.083334 78.4,21.95 L78.3,22.05 C78.4000005,22.2833345 78.45,22.7166635 78.45,23.35 L78.45,32.65 C78.45,33.250003 78.4000005,33.683332 78.3,33.95 L78.4,34.05 C78.7000015,33.916666 79.116664,33.85 79.65,33.85 L93.3,33.85 L93.3,38.75 L73.25,38.75 L73.25,3.75 L93.1,3.75 L93.1,8.65 Z M105.525,37.2 C102.674986,35.666659 100.466674,33.5166805 98.9,30.75 C97.3333255,27.9833195 96.55,24.8166845 96.55,21.25 C96.55,17.6833155 97.3333255,14.5166805 98.9,11.75 C100.466674,8.9833195 102.674986,6.833341 105.525,5.3 C108.375014,3.766659 111.633315,3 115.3,3 C119.96669,3 124.083315,4.2833205 127.65,6.85 L124.45,11.4 C123.083326,10.399995 121.591675,9.633336 119.975,9.1 C118.358325,8.566664 116.733341,8.3 115.1,8.3 C112.599987,8.3 110.37501,8.8499945 108.425,9.95 C106.47499,11.0500055 104.958339,12.5749902 103.875,14.525 C102.791661,16.4750098 102.25,18.716654 102.25,21.25 C102.25,23.783346 102.791661,26.0249902 103.875,27.975 C104.958339,29.9250098 106.47499,31.4499945 108.425,32.55 C110.37501,33.6500055 112.599987,34.2 115.1,34.2 C116.733341,34.2 118.358325,33.933336 119.975,33.4 C121.591675,32.866664 123.083326,32.100005 124.45,31.1 L127.65,35.65 C124.083315,38.2166795 119.96669,39.5 115.3,39.5 C111.633315,39.5 108.375014,38.733341 105.525,37.2 Z M160.75,38.75 L155.55,38.75 L155.55,23.9 C155.55,23.299997 155.6,22.8833345 155.7,22.65 L155.6,22.55 C155.299999,22.683334 154.883336,22.75 154.35,22.75 L139.05,22.75 C138.516664,22.75 138.100002,22.683334 137.8,22.55 L137.7,22.65 C137.800001,22.8833345 137.85,23.299997 137.85,23.9 L137.85,38.75 L132.65,38.75 L132.65,3.75 L137.85,3.75 L137.85,16.6 C137.85,17.1666695 137.800001,17.583332 137.7,17.85 L137.8,17.95 C138.100002,17.816666 138.516664,17.75 139.05,17.75 L154.35,17.75 C154.883336,17.75 155.299999,17.816666 155.6,17.95 L155.7,17.85 C155.6,17.583332 155.55,17.1666695 155.55,16.6 L155.55,3.75 L160.75,3.75 L160.75,38.75 Z M203.3,8.65 L189.65,8.65 C189.116664,8.65 188.700001,8.583334 188.4,8.45 L188.3,8.55 C188.400001,8.7833345 188.45,9.2166635 188.45,9.85 L188.45,16.7 C188.45,17.2666695 188.400001,17.683332 188.3,17.95 L188.4,18.05 C188.700001,17.916666 189.116664,17.85 189.65,17.85 L202.15,17.85 L202.15,22.75 L189.65,22.75 C189.116664,22.75 188.700001,22.683334 188.4,22.55 L188.3,22.65 C188.400001,22.8833345 188.45,23.299997 188.45,23.9 L188.45,38.75 L183.25,38.75 L183.25,3.75 L203.3,3.75 L203.3,8.65 Z M233.7,5.35 C236.466681,6.9166745 238.633326,9.0833195 240.2,11.85 C241.766675,14.6166805 242.55,17.7499825 242.55,21.25 C242.55,24.7500175 241.766675,27.8833195 240.2,30.65 C238.633326,33.4166805 236.466681,35.5833255 233.7,37.15 C230.93332,38.7166745 227.800018,39.5 224.3,39.5 C220.799982,39.5 217.666681,38.7166745 214.9,37.15 C212.133319,35.5833255 209.966675,33.4166805 208.4,30.65 C206.833326,27.8833195 206.05,24.7500175 206.05,21.25 C206.05,17.7499825 206.833326,14.6166805 208.4,11.85 C209.966675,9.0833195 212.133319,6.9166745 214.9,5.35 C217.666681,3.7833255 220.799982,3 224.3,3 C227.800018,3 230.93332,3.7833255 233.7,5.35 Z M217.8,9.95 C215.899991,11.0500055 214.416672,12.5833235 213.35,14.55 C212.283328,16.5166765 211.75,18.7499875 211.75,21.25 C211.75,23.7500125 212.283328,25.9833235 213.35,27.95 C214.416672,29.9166765 215.899991,31.4499945 217.8,32.55 C219.700009,33.6500055 221.866655,34.2 224.3,34.2 C226.733346,34.2 228.899991,33.6500055 230.8,32.55 C232.70001,31.4499945 234.183328,29.9166765 235.25,27.95 C236.316672,25.9833235 236.85,23.7500125 236.85,21.25 C236.85,18.7499875 236.316672,16.5166765 235.25,14.55 C234.183328,12.5833235 232.70001,11.0500055 230.8,9.95 C228.899991,8.8499945 226.733346,8.3 224.3,8.3 C221.866655,8.3 219.700009,8.8499945 217.8,9.95 Z M267.35,6.35 C269.283343,8.083342 270.25,10.4666515 270.25,13.5 C270.25,15.300009 269.808338,16.899993 268.925,18.3 C268.041662,19.700007 266.925007,20.7833295 265.575,21.55 C264.224993,22.3166705 262.88334,22.7 261.55,22.7 C260.983331,22.7 260.400003,22.6166675 259.8,22.45 L259.8,22.65 C260.46667,22.8833345 261.074997,23.2166645 261.625,23.65 C262.175003,24.0833355 262.766663,24.699996 263.4,25.5 L274,38.75 L267.25,38.75 L254.9,23.1 L254.4,23.1 C253.866664,23.1 253.466668,23.033334 253.2,22.9 L253.1,23 C253.200001,23.3000015 253.25,23.749997 253.25,24.35 L253.25,38.75 L248.05,38.75 L248.05,3.75 L259.5,3.75 C262.800016,3.75 265.416657,4.616658 267.35,6.35 Z M253.1,8.55 C253.2,8.7833345 253.25,9.2166635 253.25,9.85 L253.25,16.95 C253.25,17.5166695 253.2,17.933332 253.1,18.2 L253.2,18.3 C253.500001,18.166666 253.916664,18.1 254.45,18.1 L259.55,18.1 C261.183341,18.1 262.441662,17.6916708 263.325,16.875 C264.208338,16.0583292 264.65,14.916674 264.65,13.45 C264.65,12.0166595 264.216671,10.8583377 263.35,9.975 C262.483329,9.09166225 261.216675,8.65 259.55,8.65 L254.45,8.65 C253.916664,8.65 253.500001,8.583334 253.2,8.45 L253.1,8.55 Z M293,3.75 L305.95,3.75 C308.950015,3.75 311.341658,4.549992 313.125,6.15 C314.908342,7.750008 315.8,9.88332 315.8,12.55 C315.8,14.216675 315.416671,15.6416608 314.65,16.825 C313.88333,18.0083393 312.800007,18.8833305 311.4,19.45 C310.63333,19.783335 309.800005,19.9666665 308.9,20 L308.9,20.2 C309.933338,20.2 310.78333,20.299999 311.45,20.5 C313.483343,20.966669 315.066661,21.9583257 316.2,23.475 C317.333339,24.9916743 317.9,26.849989 317.9,29.05 C317.9,30.983343 317.458338,32.683326 316.575,34.15 C315.691662,35.616674 314.441675,36.749996 312.825,37.55 C311.208325,38.350004 309.333344,38.75 307.2,38.75 L293,38.75 L293,3.75 Z M299.4,18.3 L304.6,18.3 C306.433342,18.3 307.866661,17.8583377 308.9,16.975 C309.933338,16.0916623 310.45,14.8666745 310.45,13.3 C310.45,11.7999925 309.983338,10.650004 309.05,9.85 C308.116662,9.049996 306.766676,8.65 305,8.65 L299.4,8.65 C298.866664,8.65 298.450001,8.583334 298.15,8.45 L298.05,8.55 C298.150001,8.7833345 298.2,9.2166635 298.2,9.85 L298.2,17.15 C298.2,17.7166695 298.150001,18.133332 298.05,18.4 L298.15,18.5 C298.450001,18.366666 298.866664,18.3 299.4,18.3 Z M299.4,33.85 L306.25,33.85 C310.383354,33.85 312.45,32.116684 312.45,28.65 C312.45,26.8166575 311.875006,25.433338 310.725,24.5 C309.574994,23.566662 307.866678,23.1 305.6,23.1 L299.4,23.1 C298.866664,23.1 298.450001,23.033334 298.15,22.9 L298.05,23 C298.150001,23.2333345 298.2,23.649997 298.2,24.25 L298.2,32.65 C298.2,33.250003 298.150001,33.683332 298.05,33.95 L298.15,34.05 C298.450001,33.916666 298.866664,33.85 299.4,33.85 Z M343.75,8.65 L330.3,8.65 C329.766664,8.65 329.350001,8.583334 329.05,8.45 L328.95,8.55 C329.05,8.7833345 329.1,9.2166635 329.1,9.85 L329.1,16.1 C329.1,16.6666695 329.05,17.083332 328.95,17.35 L329.05,17.45 C329.350001,17.316666 329.766664,17.25 330.3,17.25 L342.1,17.25 L342.1,22.15 L330.3,22.15 C329.766664,22.15 329.350001,22.083334 329.05,21.95 L328.95,22.05 C329.05,22.2833345 329.1,22.7166635 329.1,23.35 L329.1,32.65 C329.1,33.250003 329.05,33.683332 328.95,33.95 L329.05,34.05 C329.350001,33.916666 329.766664,33.85 330.3,33.85 L343.95,33.85 L343.95,38.75 L323.9,38.75 L323.9,3.75 L343.75,3.75 L343.75,8.65 Z M371.45,8.75 L362.75,8.75 C362.216664,8.75 361.800002,8.683334 361.5,8.55 L361.4,8.65 C361.5,8.8833345 361.55,9.299997 361.55,9.9 L361.55,38.75 L356.35,38.75 L356.35,9.9 C356.35,9.299997 356.399999,8.8833345 356.5,8.65 L356.4,8.55 C356.099998,8.683334 355.683336,8.75 355.15,8.75 L346.45,8.75 L346.45,3.75 L371.45,3.75 L371.45,8.75 Z M397.95,8.75 L389.25,8.75 C388.716664,8.75 388.300002,8.683334 388,8.55 L387.9,8.65 C388,8.8833345 388.05,9.299997 388.05,9.9 L388.05,38.75 L382.85,38.75 L382.85,9.9 C382.85,9.299997 382.899999,8.8833345 383,8.65 L382.9,8.55 C382.599998,8.683334 382.183336,8.75 381.65,8.75 L372.95,8.75 L372.95,3.75 L397.95,3.75 L397.95,8.75 Z M422.05,8.65 L408.6,8.65 C408.066664,8.65 407.650002,8.583334 407.35,8.45 L407.25,8.55 C407.350001,8.7833345 407.4,9.2166635 407.4,9.85 L407.4,16.1 C407.4,16.6666695 407.350001,17.083332 407.25,17.35 L407.35,17.45 C407.650002,17.316666 408.066664,17.25 408.6,17.25 L420.4,17.25 L420.4,22.15 L408.6,22.15 C408.066664,22.15 407.650002,22.083334 407.35,21.95 L407.25,22.05 C407.350001,22.2833345 407.4,22.7166635 407.4,23.35 L407.4,32.65 C407.4,33.250003 407.350001,33.683332 407.25,33.95 L407.35,34.05 C407.650002,33.916666 408.066664,33.85 408.6,33.85 L422.25,33.85 L422.25,38.75 L402.2,38.75 L402.2,3.75 L422.05,3.75 L422.05,8.65 Z M447.3,6.35 C449.233343,8.083342 450.2,10.4666515 450.2,13.5 C450.2,15.300009 449.758338,16.899993 448.875,18.3 C447.991662,19.700007 446.875007,20.7833295 445.525,21.55 C444.174993,22.3166705 442.83334,22.7 441.5,22.7 C440.933331,22.7 440.350003,22.6166675 439.75,22.45 L439.75,22.65 C440.41667,22.8833345 441.024997,23.2166645 441.575,23.65 C442.125003,24.0833355 442.716663,24.699996 443.35,25.5 L453.95,38.75 L447.2,38.75 L434.85,23.1 L434.35,23.1 C433.816664,23.1 433.416668,23.033334 433.15,22.9 L433.05,23 C433.15,23.3000015 433.2,23.749997 433.2,24.35 L433.2,38.75 L428,38.75 L428,3.75 L439.45,3.75 C442.750016,3.75 445.366657,4.616658 447.3,6.35 Z M433.05,8.55 C433.150001,8.7833345 433.2,9.2166635 433.2,9.85 L433.2,16.95 C433.2,17.5166695 433.150001,17.933332 433.05,18.2 L433.15,18.3 C433.450002,18.166666 433.866664,18.1 434.4,18.1 L439.5,18.1 C441.133342,18.1 442.391662,17.6916708 443.275,16.875 C444.158338,16.0583292 444.6,14.916674 444.6,13.45 C444.6,12.0166595 444.166671,10.8583377 443.3,9.975 C442.433329,9.09166225 441.166675,8.65 439.5,8.65 L434.4,8.65 C433.866664,8.65 433.450002,8.583334 433.15,8.45 L433.05,8.55 Z" id="Tech-for-better"></path>
                </g>
            </g>
        </g>
    </g>
</svg>