
<svg width="395px" height="38px" viewBox="0 0 395 38" version="1.1" xmlns="http://www.w3.org/2000/svg" xmlns:xlink="http://www.w3.org/1999/xlink">
    <!-- Generator: Sketch 51.1 (57501) - http://www.bohemiancoding.com/sketch -->
    <desc>Created with Sketch.</desc>
    <defs></defs>
    <g id="website" stroke="none" stroke-width="1" fill="none" fill-rule="evenodd">
        <g id="menu_yellow" transform="translate(-530.000000, -199.000000)" stroke="#121212">
            <g id="text_after" transform="translate(487.000000, 197.000000)">
                <g id="1">
                    <path d="M74.65,21.95 C75.31667,23.750009 75.7583322,25.0333295 75.975,25.8 C76.1916677,26.5666705 76.3499995,27.4666615 76.45,28.5 L76.65,28.5 C76.7500005,27.499995 76.9083323,26.5916707 77.125,25.775 C77.3416677,24.9583292 77.749997,23.7000085 78.35,22 L84.65,3.75 L90.6,3.75 L76.85,39.25 L76.25,39.25 L68.3,18.75 C67.966665,17.883329 67.7500005,17.1666695 67.65,16.6 C67.5499995,16.0333305 67.466667,15.316671 67.4,14.45 L67.2,14.45 C67.133333,15.316671 67.0500005,16.0333305 66.95,16.6 C66.8499995,17.1666695 66.633335,17.883329 66.3,18.75 L58.35,39.25 L57.75,39.25 L44,3.75 L49.95,3.75 L56.25,22 C56.850003,23.7000085 57.2583323,24.9583292 57.475,25.775 C57.6916678,26.5916707 57.8499995,27.499995 57.95,28.5 L58.15,28.5 C58.2500005,27.4666615 58.4083323,26.5666705 58.625,25.8 C58.8416677,25.0333295 59.28333,23.750009 59.95,21.95 L66.95,3.25 L67.65,3.25 L74.65,21.95 Z M122.45,38.75 L117.25,38.75 L117.25,23.9 C117.25,23.299997 117.3,22.8833345 117.4,22.65 L117.3,22.55 C116.999999,22.683334 116.583336,22.75 116.05,22.75 L100.75,22.75 C100.216664,22.75 99.8000015,22.683334 99.5,22.55 L99.4,22.65 C99.5000005,22.8833345 99.55,23.299997 99.55,23.9 L99.55,38.75 L94.35,38.75 L94.35,3.75 L99.55,3.75 L99.55,16.6 C99.55,17.1666695 99.5000005,17.583332 99.4,17.85 L99.5,17.95 C99.8000015,17.816666 100.216664,17.75 100.75,17.75 L116.05,17.75 C116.583336,17.75 116.999999,17.816666 117.3,17.95 L117.4,17.85 C117.3,17.583332 117.25,17.1666695 117.25,16.6 L117.25,3.75 L122.45,3.75 L122.45,38.75 Z M143.35,3 L143.85,3 L160.5,38.75 L154.65,38.75 L150.55,29.55 L136.65,29.55 L132.55,38.75 L126.7,38.75 L143.35,3 Z M140.9,25.1 L146.3,25.1 C147.566673,25.1 148.499997,25.133333 149.1,25.2 L149.15,25.15 C148.583331,24.4499965 148.050003,23.500006 147.55,22.3 L144.95,16.15 C144.216663,14.3833245 143.800001,13.0500045 143.7,12.15 L143.5,12.15 C143.4,13.0500045 142.983337,14.3833245 142.25,16.15 L139.65,22.3 C139.149998,23.500006 138.61667,24.4499965 138.05,25.15 L138.1,25.2 C138.700003,25.133333 139.633327,25.1 140.9,25.1 Z M182.5,8.75 L173.8,8.75 C173.266664,8.75 172.850002,8.683334 172.55,8.55 L172.45,8.65 C172.55,8.8833345 172.6,9.299997 172.6,9.9 L172.6,38.75 L167.4,38.75 L167.4,9.9 C167.4,9.299997 167.449999,8.8833345 167.55,8.65 L167.45,8.55 C167.149998,8.683334 166.733336,8.75 166.2,8.75 L157.5,8.75 L157.5,3.75 L182.5,3.75 L182.5,8.75 Z M213.15,3 L213.65,3 L230.3,38.75 L224.45,38.75 L220.35,29.55 L206.45,29.55 L202.35,38.75 L196.5,38.75 L213.15,3 Z M210.7,25.1 L216.1,25.1 C217.366673,25.1 218.299997,25.133333 218.9,25.2 L218.95,25.15 C218.38333,24.4499965 217.850003,23.500006 217.35,22.3 L214.75,16.15 C214.016663,14.3833245 213.600001,13.0500045 213.5,12.15 L213.3,12.15 C213.2,13.0500045 212.783337,14.3833245 212.05,16.15 L209.45,22.3 C208.949997,23.500006 208.41667,24.4499965 207.85,25.15 L207.9,25.2 C208.500003,25.133333 209.433327,25.1 210.7,25.1 Z M256.3,24.55 C256.900003,25.150003 257.449997,25.8083297 257.95,26.525 C258.450003,27.2416702 258.816665,27.8833305 259.05,28.45 L259.25,28.4 C258.916665,27.133327 258.75,25.033348 258.75,22.1 L258.75,3.75 L263.95,3.75 L263.95,39.25 L263.5,39.25 L242.2,17.95 C241.599997,17.349997 241.050003,16.6916702 240.55,15.975 C240.049998,15.2583298 239.683335,14.6166695 239.45,14.05 L239.25,14.1 C239.583335,15.366673 239.75,17.4499855 239.75,20.35 L239.75,38.75 L234.55,38.75 L234.55,3.25 L235,3.25 L256.3,24.55 Z M291.875,5.9 C294.59168,7.3333405 296.691659,9.37498675 298.175,12.025 C299.658341,14.6750132 300.4,17.7499825 300.4,21.25 C300.4,24.7500175 299.658341,27.8249868 298.175,30.475 C296.691659,33.1250133 294.59168,35.1666595 291.875,36.6 C289.15832,38.0333405 286.000018,38.75 282.4,38.75 L271.45,38.75 L271.45,3.75 L282.4,3.75 C286.000018,3.75 289.15832,4.4666595 291.875,5.9 Z M276.5,8.55 C276.6,8.7833345 276.65,9.199997 276.65,9.8 L276.65,32.7 C276.65,33.2666695 276.6,33.683332 276.5,33.95 L276.6,34.05 C276.900002,33.916666 277.316664,33.85 277.85,33.85 L282.45,33.85 C286.283352,33.85 289.283322,32.7416778 291.45,30.525 C293.616678,28.3083223 294.7,25.2166865 294.7,21.25 C294.7,17.316647 293.616678,14.2333445 291.45,12 C289.283322,9.7666555 286.283352,8.65 282.45,8.65 L277.85,8.65 C277.316664,8.65 276.900002,8.583334 276.6,8.45 L276.5,8.55 Z M347.3,21.95 C347.96667,23.750009 348.408332,25.0333295 348.625,25.8 C348.841668,26.5666705 349,27.4666615 349.1,28.5 L349.3,28.5 C349.4,27.499995 349.558332,26.5916707 349.775,25.775 C349.991668,24.9583292 350.399997,23.7000085 351,22 L357.3,3.75 L363.25,3.75 L349.5,39.25 L348.9,39.25 L340.95,18.75 C340.616665,17.883329 340.4,17.1666695 340.3,16.6 C340.199999,16.0333305 340.116667,15.316671 340.05,14.45 L339.85,14.45 C339.783333,15.316671 339.7,16.0333305 339.6,16.6 C339.5,17.1666695 339.283335,17.883329 338.95,18.75 L331,39.25 L330.4,39.25 L316.65,3.75 L322.6,3.75 L328.9,22 C329.500003,23.7000085 329.908332,24.9583292 330.125,25.775 C330.341668,26.5916707 330.5,27.499995 330.6,28.5 L330.8,28.5 C330.9,27.4666615 331.058332,26.5666705 331.275,25.8 C331.491668,25.0333295 331.93333,23.750009 332.6,21.95 L339.6,3.25 L340.3,3.25 L347.3,21.95 Z M395.1,38.75 L389.9,38.75 L389.9,23.9 C389.9,23.299997 389.95,22.8833345 390.05,22.65 L389.95,22.55 C389.649999,22.683334 389.233336,22.75 388.7,22.75 L373.4,22.75 C372.866664,22.75 372.450002,22.683334 372.15,22.55 L372.05,22.65 C372.150001,22.8833345 372.2,23.299997 372.2,23.9 L372.2,38.75 L367,38.75 L367,3.75 L372.2,3.75 L372.2,16.6 C372.2,17.1666695 372.150001,17.583332 372.05,17.85 L372.15,17.95 C372.450002,17.816666 372.866664,17.75 373.4,17.75 L388.7,17.75 C389.233336,17.75 389.649999,17.816666 389.95,17.95 L390.05,17.85 C389.95,17.583332 389.9,17.1666695 389.9,16.6 L389.9,3.75 L395.1,3.75 L395.1,38.75 Z M428.25,5.35 C431.016681,6.9166745 433.183326,9.0833195 434.75,11.85 C436.316675,14.6166805 437.1,17.7499825 437.1,21.25 C437.1,24.7500175 436.316675,27.8833195 434.75,30.65 C433.183326,33.4166805 431.016681,35.5833255 428.25,37.15 C425.48332,38.7166745 422.350018,39.5 418.85,39.5 C415.349983,39.5 412.216681,38.7166745 409.45,37.15 C406.68332,35.5833255 404.516675,33.4166805 402.95,30.65 C401.383326,27.8833195 400.6,24.7500175 400.6,21.25 C400.6,17.7499825 401.383326,14.6166805 402.95,11.85 C404.516675,9.0833195 406.68332,6.9166745 409.45,5.35 C412.216681,3.7833255 415.349983,3 418.85,3 C422.350018,3 425.48332,3.7833255 428.25,5.35 Z M412.35,9.95 C410.449991,11.0500055 408.966672,12.5833235 407.9,14.55 C406.833328,16.5166765 406.3,18.7499875 406.3,21.25 C406.3,23.7500125 406.833328,25.9833235 407.9,27.95 C408.966672,29.9166765 410.449991,31.4499945 412.35,32.55 C414.25001,33.6500055 416.416655,34.2 418.85,34.2 C421.283346,34.2 423.449991,33.6500055 425.35,32.55 C427.25001,31.4499945 428.733328,29.9166765 429.8,27.95 C430.866672,25.9833235 431.4,23.7500125 431.4,21.25 C431.4,18.7499875 430.866672,16.5166765 429.8,14.55 C428.733328,12.5833235 427.25001,11.0500055 425.35,9.95 C423.449991,8.8499945 421.283346,8.3 418.85,8.3 C416.416655,8.3 414.25001,8.8499945 412.35,9.95 Z" id="What-and-who"></path>
                </g>
            </g>
        </g>
    </g>
</svg>