<svg height="119" viewBox="0 0 172 119" width="172" xmlns="http://www.w3.org/2000/svg" xmlns:xlink="http://www.w3.org/1999/xlink"><mask id="a" fill="#fff"><path d="m27 86.0344828 17.7-17.6896552 29.5 29.4827586v-123.8275862h23.6v123.8275862l29.5-29.4827586 17.7 17.6896552-59 58.9655172z" fill="#fff" fill-rule="evenodd"/></mask><path d="m-1.92856344 40.9285634 102.74899944 102.7489996-1.0173171 1.017316-102.74899917-102.7489987zm-4.52705987 4.5270599 102.74899921 102.7489997-1.0173168 1.017316-102.74899923-102.7489989zm-4.52705989 4.5270599 102.7489992 102.7489988-1.0173168 1.017317-102.7489992-102.748999zm13.58117962-13.5811796 102.74899958 102.7489994-1.017317 1.017317-102.7489994-102.7489996zm4.52705987-4.5270599 102.74899871 102.7489993-1.017316 1.017317-102.74899954-102.7489995zm4.52705991-4.5270599 102.7489988 102.7489992-1.017316 1.017317-102.7489997-102.7489993zm4.5270598-4.5270598 102.748999 102.748999-1.017317 1.017317-102.7489988-102.7489992zm4.5270599-4.5270599 102.7489991 102.7489989-1.017317 1.017317-102.7489989-102.7489991zm4.5270599-4.5270599 102.7489992 102.7489988-1.017317 1.017317-102.7489991-102.7489989zm4.5270598-4.52705982 102.7489994 102.74899962-1.017317 1.017316-102.7489992-102.7489988zm4.5270599-4.52705986 102.7489995 102.74899948-1.017317 1.017317-102.7489993-102.74899966zm4.5270599-4.52705987 102.7489996 102.74899935-1.017317 1.017317-102.7489995-102.74899953zm4.5270598-4.52705987 102.7489988 102.74899922-1.017316 1.0173168-102.7489996-102.74899919zm4.5270599-4.52705986 102.7489989 102.74899918-1.017317 1.0173168-102.7489987-102.74899916zm4.5270598-4.52705982 102.7489991 102.7489992-1.017317 1.0173168-102.7489989-102.7489992zm4.5270599-4.5270599 102.7489992 102.7489992-1.017317 1.0173168-102.748999-102.7489992zm4.5270599-4.5270599 102.7489993 102.7489992-1.017317 1.0173169-102.7489991-102.7489993zm4.5270598-4.5270598 102.7489995 102.7489992-1.017317 1.0173168-102.7489993-102.7489992zm4.5270599-4.5270599 102.7489996 102.7489992-1.017317 1.0173168-102.7489994-102.7489992zm4.5270599-4.5270599 102.7489987 102.7489992-1.017316 1.0173169-102.7489995-102.7489993zm4.5270598-4.5270598 102.7489989 102.7489992-1.017316 1.0173168-102.7489997-102.7489992z" fill="#ffe500" fill-rule="evenodd" mask="url(#a)" transform="matrix(0 -1 1 0 30.251 147.558514)"/></svg>