<svg height="169" viewBox="0 0 115 169" width="115" xmlns="http://www.w3.org/2000/svg" xmlns:xlink="http://www.w3.org/1999/xlink"><mask id="a" fill="#fff"><path d="m-2 112.034483 17.7-17.6896554 29.5 29.4827584v-123.827586h23.6v123.827586l29.5-29.4827584 17.7 17.6896554-59 58.965517z" fill="#fff" fill-rule="evenodd"/></mask><path d="m-30.9285634 66.9285634 102.7489992 102.7489996-1.0173169 1.017316-102.7489992-102.7489987zm-4.5270599 4.5270599 102.7489992 102.7489997-1.0173168 1.017316-102.7489992-102.7489989zm-4.5270599 4.5270599 102.7489992 102.7489988-1.0173168 1.017317-102.7489992-102.748999zm13.5811796-13.5811796 102.7489992 102.7489994-1.0173168 1.017317-102.7489992-102.7489996zm4.5270599-4.5270599 102.7489992 102.7489993-1.0173168 1.017317-102.7489992-102.7489995zm4.5270599-4.5270599 102.7489992 102.7489992-1.0173169 1.017317-102.7489992-102.7489993zm4.5270598-4.5270598 102.7489992 102.748999-1.0173168 1.017317-102.7489992-102.7489992zm4.52705989-4.5270599 102.74899921 102.7489989-1.0173168 1.017317-102.74899924-102.7489991zm4.52705986-4.5270599 102.74899925 102.7489988-1.0173169 1.017317-102.74899917-102.7489989zm4.52705987-4.5270598 102.74899938 102.7489996-1.017317 1.017316-102.74899921-102.7489988zm4.52705986-4.5270599 102.74899952 102.7489995-1.017317 1.017317-102.74899934-102.7489997zm4.52705987-4.5270599 102.74899965 102.7489994-1.017317 1.017317-102.74899947-102.7489995zm4.52705985-4.5270598 102.7489988 102.7489992-1.017316 1.017317-102.7489996-102.7489994zm4.5270599-4.5270599 102.7489989 102.7489991-1.017317 1.017317-102.7489987-102.7489993zm4.5270598-4.5270598 102.7489991 102.7489989-1.017317 1.017317-102.7489989-102.7489991zm4.5270599-4.52705992 102.7489992 102.74899882-1.017317 1.017317-102.748999-102.74899899zm4.5270599-4.52705986 102.7489993 102.74899968-1.017317 1.017316-102.7489991-102.74899886zm4.5270598-4.52705987 102.7489995 102.74899955-1.017317 1.017316-102.7489993-102.74899872zm4.5270599-4.52705986 102.7489996 102.74899921-1.017317 1.0173168-102.7489994-102.74899919zm4.5270599-4.52705989 102.7489987 102.7489992-1.017316 1.0173169-102.7489995-102.74899926zm4.5270598-4.5270598 102.7489989 102.7489992-1.017316 1.0173168-102.7489997-102.7489992z" fill="#ff2800" fill-rule="evenodd" mask="url(#a)"/></svg>