<?xml version="1.0" standalone="no"?>
<!DOCTYPE svg PUBLIC "-//W3C//DTD SVG 20010904//EN"
 "http://www.w3.org/TR/2001/REC-SVG-20010904/DTD/svg10.dtd">
<svg version="1.0" xmlns="http://www.w3.org/2000/svg"
 width="2280.000000pt" height="996.000000pt" viewBox="0 0 2280.000000 996.000000"
 preserveAspectRatio="xMidYMid meet">
<metadata>
Created by potrace 1.15, written by Peter Selinger 2001-2017
</metadata>
<g transform="translate(0.000000,996.000000) scale(0.100000,-0.100000)"
fill="#000000" stroke="none">
<path d="M0 6060 l0 -3900 3900 0 3900 0 0 3900 0 3900 -3900 0 -3900 0 0
-3900z m3932 -33 c-25 -26 -32 -42 -32 -72 l0 -39 73 72 72 72 150 0 150 0
-223 -223 -222 -222 0 -45 0 -45 268 268 267 267 145 0 145 0 -413 -413 -412
-412 0 -45 0 -45 458 458 457 457 150 0 150 0 -608 -608 c-600 -600 -607 -608
-607 -647 l0 -40 648 648 647 647 150 0 150 0 -798 -798 -797 -797 0 -45 0
-45 843 843 842 842 145 0 145 0 -988 -988 -987 -987 0 -45 0 -45 1033 1033
1032 1032 150 0 150 0 -1183 -1183 c-1175 -1175 -1182 -1182 -1182 -1222 l0
-40 1223 1223 1222 1222 150 0 150 0 -1373 -1373 -1372 -1372 0 -45 0 -45
1418 1418 1417 1417 145 0 145 0 -1563 -1563 -1562 -1562 0 -45 0 -45 1608
1608 1607 1607 150 0 150 0 -1758 -1758 c-1750 -1750 -1757 -1757 -1757 -1797
l0 -40 1798 1798 1797 1797 123 0 122 0 0 -27 c0 -24 -294 -322 -1892 -1920
l-1893 -1893 -1947 0 -1948 0 0 1920 0 1920 1952 0 1952 0 -32 -33z m2111
-2109 l-1698 -1698 -150 0 -150 0 1845 1845 1845 1845 3 -147 3 -147 -1698
-1698z m190 -190 l-1508 -1508 -150 0 -150 0 1655 1655 1655 1655 3 -147 3
-147 -1508 -1508z m190 -190 l-1318 -1318 -145 0 -145 0 1460 1460 1460 1460
3 -142 3 -142 -1318 -1318z m195 -195 l-1123 -1123 -150 0 -150 0 1270 1270
1270 1270 3 -147 3 -147 -1123 -1123z m190 -190 l-933 -933 -150 0 -150 0
1080 1080 1080 1080 3 -147 3 -147 -933 -933z m190 -190 l-743 -743 -145 0
-145 0 885 885 885 885 3 -142 3 -142 -743 -743z m195 -195 l-548 -548 -150 0
-150 0 695 695 695 695 3 -147 3 -147 -548 -548z m190 -190 l-358 -358 -150 0
-150 0 505 505 505 505 3 -147 3 -147 -358 -358z m190 -190 l-168 -168 -145 0
-145 0 310 310 310 310 3 -142 3 -142 -168 -168z m167 -48 l0 -120 -122 0
-123 0 120 120 c66 66 121 120 122 120 2 0 3 -54 3 -120z"/>
<path d="M10077 6065 c-1071 -2142 -1947 -3897 -1947 -3900 0 -3 1755 -5 3900
-5 2145 0 3900 2 3900 5 0 10 -3895 7795 -3900 7795 -3 0 -881 -1753 -1953
-3895z m2896 1879 c586 -1171 934 -1879 928 -1884 -7 -4 0 -17 18 -34 l30 -29
-50 -100 -51 -100 -131 131 c-125 125 -134 132 -172 132 l-40 0 158 -158 159
-159 -47 -94 c-26 -52 -49 -96 -52 -99 -2 -2 -119 112 -261 253 l-257 257 -45
0 -45 0 288 -288 289 -289 -47 -94 c-26 -52 -49 -96 -52 -99 -2 -2 -178 170
-391 383 -380 380 -388 387 -427 387 l-40 0 415 -415 414 -415 -49 -100 -49
-100 -516 515 -515 515 -45 0 -45 0 545 -545 545 -545 -48 -97 -49 -96 -641
641 -642 642 -45 0 -45 0 672 -672 672 -673 -51 -99 -50 -99 -771 771 c-765
765 -772 772 -812 772 l-40 0 798 -798 799 -799 -47 -94 c-26 -52 -49 -96 -52
-99 -2 -2 -408 400 -901 893 l-897 897 -45 0 -45 0 928 -928 929 -929 -49 -96
-48 -97 -1025 1025 -1025 1025 -45 0 -45 0 1055 -1055 1055 -1055 -48 -95
c-26 -52 -50 -95 -54 -95 -5 0 -526 518 -1158 1150 -1143 1143 -1150 1150
-1190 1150 l-40 0 1182 -1182 1182 -1183 -51 -99 -50 -99 -1278 1278 -1278
1278 941 1883 c518 1036 944 1884 947 1884 3 0 427 -844 943 -1876z m-350
-4598 c-25 -50 -47 -93 -50 -96 -2 -2 -490 482 -1084 1075 l-1081 1080 -145
290 -145 290 1275 -1274 1275 -1274 -45 -91z m-128 -257 c-26 -52 -49 -96 -52
-99 -2 -2 -373 365 -824 815 l-821 820 -150 300 -150 300 1022 -1021 1022
-1021 -47 -94z m-130 -259 l-49 -100 -569 567 -569 568 -144 287 c-79 159
-144 291 -144 295 0 5 343 -335 762 -754 l762 -762 -49 -101z m-128 -257 l-49
-96 -315 314 -315 314 -145 290 -145 290 509 -507 508 -508 -48 -97z m-129
-256 l-50 -100 -55 54 c-49 48 -71 86 -205 354 l-150 300 255 -254 255 -254
-50 -100z"/>
<path d="M18590 9954 c-19 -2 -80 -9 -135 -15 -518 -55 -1058 -235 -1525 -507
-320 -186 -662 -462 -903 -727 -570 -628 -901 -1352 -1009 -2205 -18 -143 -18
-737 0 -880 83 -657 295 -1228 650 -1750 283 -417 625 -759 1042 -1042 522
-355 1093 -567 1750 -650 143 -18 737 -18 880 0 657 83 1228 295 1750 650 417
283 759 625 1042 1042 355 522 567 1093 650 1750 18 143 18 737 0 880 -95 752
-365 1406 -817 1980 -499 633 -1207 1110 -1970 1328 -395 113 -609 143 -1045
147 -179 2 -341 1 -360 -1z m310 -1171 l0 -1118 -841 -841 -842 -842 7 -38 8
-37 834 834 834 834 0 -145 0 -145 -806 -805 c-443 -443 -809 -813 -815 -822
-6 -11 -5 -27 2 -44 10 -28 20 -18 815 777 l804 804 0 -150 0 -150 -764 -764
c-761 -761 -764 -764 -754 -794 l11 -29 753 753 754 754 0 -150 0 -150 -696
-696 -696 -696 18 -27 17 -28 679 679 678 678 0 -150 0 -150 -610 -610 -611
-611 21 -19 c21 -19 22 -18 610 570 l590 590 0 -150 0 -150 -511 -511 -511
-511 28 -17 27 -18 483 483 484 484 0 -145 0 -145 -390 -390 c-214 -214 -390
-393 -390 -398 0 -4 12 -13 26 -19 24 -11 37 0 390 353 l364 364 0 -150 0
-150 -257 -257 c-167 -167 -252 -259 -242 -262 7 -2 21 -7 29 -9 10 -3 97 77
243 222 l227 226 0 -150 0 -150 -102 -102 -103 -103 45 0 c41 0 49 5 102 57
l58 57 0 -1143 0 -1144 -154 7 c-1239 53 -2355 682 -3047 1717 -333 497 -533
1049 -616 1694 -27 212 -24 662 5 885 59 453 174 841 362 1225 416 849 1127
1513 2008 1874 407 167 909 271 1345 279 l97 2 0 -1117z"/>
<path d="M18590 7713 c-18 -3 -222 -201 -682 -661 -637 -638 -656 -658 -663
-702 -7 -45 -5 -44 699 660 388 388 706 706 706 707 0 3 -25 2 -60 -4z"/>
<path d="M17969 7458 c-113 -75 -341 -294 -423 -406 -139 -190 -112 -171 208
148 174 173 316 316 316 317 0 7 -12 0 -101 -59z"/>
<path d="M1430 1245 c-211 -58 -368 -210 -432 -415 -19 -62 -23 -96 -22 -200
1 -107 5 -137 27 -206 94 -285 364 -450 680 -414 320 37 530 265 545 591 6
133 -14 228 -68 337 -50 98 -101 157 -187 216 -111 75 -192 99 -353 103 -98 2
-150 -1 -190 -12z m295 -140 c176 -46 303 -178 341 -354 57 -270 -86 -522
-332 -585 -171 -44 -353 2 -470 118 -91 92 -134 204 -134 352 0 282 192 481
465 483 39 1 97 -6 130 -14z"/>
<path d="M3960 645 l0 -615 70 0 71 0 -3 453 -3 452 40 -52 c71 -93 770 -871
783 -872 9 -1 12 128 12 614 l0 615 -70 0 -71 0 3 -454 c2 -250 2 -454 1 -453
0 1 -18 25 -40 53 -55 74 -773 874 -784 874 -5 0 -9 -256 -9 -615z"/>
<path d="M9185 1251 c-90 -22 -173 -97 -195 -176 -18 -65 -9 -171 19 -225 32
-63 77 -107 216 -213 241 -183 275 -221 275 -309 0 -181 -229 -236 -473 -113
l-67 34 -35 -68 -34 -68 77 -36 c133 -62 271 -86 388 -67 195 31 296 140 296
320 0 156 -44 216 -297 405 -82 62 -162 125 -177 141 -73 79 -61 185 25 225
73 33 208 19 307 -31 l40 -20 34 69 35 69 -47 20 c-84 36 -166 52 -263 51 -52
-1 -107 -4 -124 -8z"/>
<path d="M10905 658 c-148 -331 -271 -607 -273 -615 -3 -10 14 -13 75 -13 l78
0 76 173 75 172 255 3 254 2 75 -172 75 -173 78 -3 c67 -2 78 0 75 13 -2 8
-124 285 -273 615 -184 409 -275 600 -285 600 -10 -1 -103 -197 -285 -602z
m304 293 c9 -31 86 -216 178 -428 4 -10 -39 -13 -197 -13 -158 0 -201 3 -197
13 61 134 180 419 184 440 8 38 18 34 32 -12z"/>
<path d="M12090 645 l0 -615 71 0 70 0 -3 453 -3 452 41 -55 c64 -85 764 -865
780 -868 12 -3 14 91 14 612 l0 616 -70 0 -71 0 3 -459 3 -458 -20 34 c-25 40
-795 903 -807 903 -4 0 -8 -277 -8 -615z"/>
<path d="M15972 1240 c-296 -78 -468 -328 -449 -650 20 -326 228 -543 556
-580 103 -12 228 -1 309 27 59 19 150 65 180 89 l22 19 -35 52 c-19 28 -39 54
-44 57 -5 4 -42 -12 -83 -33 -92 -50 -171 -71 -268 -71 -197 0 -350 90 -430
253 -80 165 -69 370 29 518 106 159 321 233 530 184 36 -9 100 -34 143 -57 43
-23 79 -40 81 -37 2 2 20 28 41 58 l39 55 -24 19 c-42 34 -139 78 -217 98
-102 26 -278 25 -380 -1z"/>
<path d="M17347 1245 c-71 -18 -166 -65 -229 -112 -224 -172 -295 -525 -159
-798 52 -103 103 -162 197 -224 165 -110 395 -136 595 -67 290 101 450 407
383 734 -45 221 -186 379 -409 457 -68 25 -296 30 -378 10z m296 -140 c87 -23
155 -61 217 -124 64 -64 105 -144 126 -239 17 -85 17 -130 -1 -217 -21 -100
-60 -171 -129 -240 -92 -92 -199 -135 -336 -135 -137 0 -244 43 -336 135 -228
227 -171 638 109 781 103 53 239 68 350 39z"/>
<path d="M22335 1251 c-88 -22 -171 -94 -193 -169 -17 -55 -15 -150 4 -206 23
-67 85 -129 274 -274 191 -147 230 -193 230 -274 0 -27 -6 -61 -14 -76 -63
-121 -261 -137 -459 -37 l-67 34 -35 -68 -34 -68 77 -36 c236 -110 495 -93
612 40 55 62 73 124 68 231 -6 150 -46 202 -293 387 -82 62 -162 125 -177 141
-73 79 -61 185 25 225 73 33 208 19 307 -31 l40 -20 34 69 35 69 -53 21 c-93
38 -158 51 -256 50 -52 -1 -108 -4 -125 -8z"/>
<path d="M0 635 l0 -605 70 0 71 0 -3 285 -3 285 253 0 252 0 0 65 0 65 -252
0 -253 0 0 188 0 187 273 -3 272 -3 0 71 0 70 -340 0 -340 0 0 -605z"/>
<path d="M2600 807 c0 -369 2 -441 16 -488 60 -203 212 -309 442 -309 112 1
164 11 238 47 96 47 164 128 206 245 22 61 23 75 26 501 l3 437 -75 0 -75 0
-3 -429 -3 -428 -35 -69 c-60 -117 -161 -171 -304 -162 -129 9 -223 74 -268
186 -22 56 -23 67 -26 480 l-3 422 -70 0 -69 0 0 -433z"/>
<path d="M5380 634 l0 -606 258 4 c246 4 261 6 337 31 191 64 321 202 372 397
22 87 22 263 0 349 -39 144 -118 259 -229 329 -135 84 -227 102 -527 102
l-211 0 0 -606z m560 438 c172 -68 270 -227 270 -437 0 -234 -114 -397 -314
-451 -28 -8 -124 -17 -213 -21 l-163 -6 0 474 0 474 182 -6 c155 -5 191 -9
238 -27z"/>
<path d="M6740 635 l0 -605 345 0 345 0 0 65 0 65 -272 0 -273 0 0 235 0 235
243 0 242 0 0 65 0 65 -242 0 -243 0 0 173 0 172 268 -3 267 -3 0 71 0 70
-340 0 -340 0 0 -605z"/>
<path d="M7810 636 l0 -606 70 0 70 0 0 281 0 280 52 -3 52 -3 214 -275 214
-275 96 -3 c76 -2 93 0 85 10 -319 409 -409 521 -429 537 l-23 18 62 5 c141
12 254 115 275 253 13 80 0 162 -34 225 -34 63 -81 103 -154 132 -50 20 -76
23 -302 26 l-248 4 0 -606z m513 435 c109 -67 104 -257 -8 -315 -35 -18 -61
-21 -202 -24 l-163 -3 0 188 0 188 167 -5 c154 -5 171 -7 206 -29z"/>
<path d="M13500 635 l0 -607 263 4 c255 4 264 5 342 32 92 32 200 100 249 157
50 59 103 166 121 244 20 87 20 261 0 340 -40 157 -140 288 -272 357 -120 64
-159 70 -445 75 l-258 5 0 -607z m503 455 c219 -45 348 -234 334 -490 -8 -150
-60 -263 -156 -338 -93 -74 -211 -102 -431 -102 l-105 0 0 473 0 472 155 -3
c85 -1 177 -7 203 -12z"/>
<path d="M18530 634 l0 -606 258 4 c246 4 261 6 337 31 252 83 388 285 388
572 0 228 -80 392 -241 498 -134 88 -226 107 -531 107 l-211 0 0 -606z m560
438 c113 -45 195 -129 241 -250 27 -72 37 -229 19 -310 -36 -167 -146 -285
-304 -328 -28 -8 -124 -17 -213 -21 l-163 -6 0 474 0 474 182 -6 c155 -5 191
-9 238 -27z"/>
<path d="M19890 635 l0 -605 345 0 345 0 0 65 0 65 -272 0 -273 0 0 235 0 235
243 0 242 0 0 65 0 65 -242 0 -243 0 0 173 0 172 268 -3 267 -3 0 71 0 70
-340 0 -340 0 0 -605z"/>
<path d="M20960 636 l0 -606 70 0 70 0 0 281 0 280 52 -3 52 -3 214 -275 214
-275 96 -3 c76 -2 93 0 85 10 -6 7 -99 127 -208 266 -108 138 -208 261 -222
272 l-26 20 46 0 c74 0 154 36 213 94 64 64 87 128 86 234 -1 134 -70 236
-192 284 -50 20 -76 23 -302 26 l-248 4 0 -606z m513 435 c108 -67 102 -261
-10 -317 -32 -16 -66 -20 -200 -22 l-163 -3 0 188 0 188 167 -5 c154 -5 171
-7 206 -29z"/>
</g>
</svg>
