<?xml version="1.0" encoding="UTF-8"?>
<svg width="263px" height="114px" viewBox="0 0 263 114" version="1.1" xmlns="http://www.w3.org/2000/svg" xmlns:xlink="http://www.w3.org/1999/xlink">
    <!-- Generator: Sketch 51.2 (57519) - http://www.bohemiancoding.com/sketch -->
    <title>logo</title>
    <desc>Created with Sketch.</desc>
    <defs>
        <path d="M19.322603,0 L19.322603,38.3184974 C8.65102405,38.3184974 0,29.7406096 0,19.1592487 C0,8.57788783 8.65102405,0 19.322603,0 Z" id="path-1"></path>
        <polygon id="path-3" points="0 0 44.8560428 0 22.4280214 44.4768274"></polygon>
        <rect id="path-5" x="0" y="0" width="44.1659498" height="43.7925685"></rect>
    </defs>
    <g id="website" stroke="none" stroke-width="1" fill="none" fill-rule="evenodd">
        <g id="whats_is_FAC?" transform="translate(-80.000000, -81.000000)">
            <g id="nav" transform="translate(80.000000, 81.000000)">
                <g id="logo">
                    <g id="FAC">
                        <g id="c" transform="translate(172.523241, 0.000000)">
                            <path d="M44.8560428,0 C69.6293511,0 89.7120855,19.9129539 89.7120855,44.4768274 C89.7120855,69.0407008 69.6293511,88.9536547 44.8560428,88.9536547 L44.8560428,65.012888 L44.5150827,65.012888 C44.5150827,42.9603808 44.5150827,29.6144238 44.5150827,24.975017 C44.5150827,24.9682406 44.8560428,24.9817902 44.8560428,24.975017 C44.8560428,19.4250132 44.8560428,11.1000076 44.8560428,0 Z" id="black_semicircle" fill="#121212"></path>
                            <path d="M44.3560428,88.4509183 L44.3560428,0.502736362 C20.0883041,0.768474517 0.5,20.3554949 0.5,44.4768274 C0.5,68.5981598 20.0883041,88.1851802 44.3560428,88.4509183 Z" id="white_semicircle" stroke="#121212" fill="#FFFFFF"></path>
                            <g id="Combined-Shape" transform="translate(25.533440, 25.317579)">
                                <g id="stripes">
                                    <mask id="mask-2" fill="white">
                                        <use xlink:href="#path-1"></use>
                                    </mask>
                                    <use id="Mask" fill="#FFFFFF" xlink:href="#path-1"></use>
                                    <path d="M-26.0201133,48.7413141 L44.7683292,48.7413141 L44.7683292,49.4362646 L-26.0201133,49.4362646 L-26.0201133,48.7413141 Z M-26.0201133,51.8338435 L44.7683292,51.8338435 L44.7683292,52.528794 L-26.0201133,52.528794 L-26.0201133,51.8338435 Z M-26.0201133,54.9263729 L44.7683292,54.9263729 L44.7683292,55.6213234 L-26.0201133,55.6213234 L-26.0201133,54.9263729 Z M-26.0201133,45.6487847 L44.7683292,45.6487847 L44.7683292,46.3437352 L-26.0201133,46.3437352 L-26.0201133,45.6487847 Z M-26.0201133,42.5562553 L44.7683292,42.5562553 L44.7683292,43.2512058 L-26.0201133,43.2512058 L-26.0201133,42.5562553 Z M-26.0201133,39.4637259 L44.7683292,39.4637259 L44.7683292,40.1586764 L-26.0201133,40.1586764 L-26.0201133,39.4637259 Z M-26.0201133,36.3711965 L44.7683292,36.3711965 L44.7683292,37.066147 L-26.0201133,37.066147 L-26.0201133,36.3711965 Z M-26.0201133,33.2786671 L44.7683292,33.2786671 L44.7683292,33.9736176 L-26.0201133,33.9736176 L-26.0201133,33.2786671 Z M-26.0201133,30.1861377 L44.7683292,30.1861377 L44.7683292,30.8810882 L-26.0201133,30.8810882 L-26.0201133,30.1861377 Z M-26.0201133,27.0936083 L44.7683292,27.0936083 L44.7683292,27.7885588 L-26.0201133,27.7885588 L-26.0201133,27.0936083 Z M-26.0201133,24.0010789 L44.7683292,24.0010789 L44.7683292,24.6960294 L-26.0201133,24.6960294 L-26.0201133,24.0010789 Z M-26.0201133,20.9085495 L44.7683292,20.9085495 L44.7683292,21.6035 L-26.0201133,21.6035 L-26.0201133,20.9085495 Z M-26.0201133,17.8160201 L44.7683292,17.8160201 L44.7683292,18.5109706 L-26.0201133,18.5109706 L-26.0201133,17.8160201 Z M-26.0201133,14.7234907 L44.7683292,14.7234907 L44.7683292,15.4184412 L-26.0201133,15.4184412 L-26.0201133,14.7234907 Z M-26.0201133,11.6309613 L44.7683292,11.6309613 L44.7683292,12.3259117 L-26.0201133,12.3259117 L-26.0201133,11.6309613 Z M-26.0201133,8.53843192 L44.7683292,8.53843192 L44.7683292,9.23338235 L-26.0201133,9.23338235 L-26.0201133,8.53843192 Z M-26.0201133,5.44590252 L44.7683292,5.44590252 L44.7683292,6.14085295 L-26.0201133,6.14085295 L-26.0201133,5.44590252 Z M-26.0201133,2.35337312 L44.7683292,2.35337312 L44.7683292,3.04832354 L-26.0201133,3.04832354 L-26.0201133,2.35337312 Z M-26.0201133,-0.739156286 L44.7683292,-0.739156286 L44.7683292,-0.0442058585 L-26.0201133,-0.0442058585 L-26.0201133,-0.739156286 Z M-26.0201133,-3.83168569 L44.7683292,-3.83168569 L44.7683292,-3.13673526 L-26.0201133,-3.13673526 L-26.0201133,-3.83168569 Z M-26.0201133,-6.92421509 L44.7683292,-6.92421509 L44.7683292,-6.22926466 L-26.0201133,-6.22926466 L-26.0201133,-6.92421509 Z" id="Combined-Shape" fill="#121212" mask="url(#mask-2)" transform="translate(9.374108, 24.348554) rotate(-45.000000) translate(-9.374108, -24.348554) "></path>
                                </g>
                            </g>
                        </g>
                        <g id="A" transform="translate(93.507597, 0.000000)">
                            <polygon id="big_triangle_bg" fill="#121212" points="44.8560428 0 89.7120855 88.9536547 0 88.9536547"></polygon>
                            <path d="M22.8951825,44.6719845 L22.8583588,44.6909523 L22.6098531,44.5656713 L22.6098531,44.3860519 L22.7401105,44.3189568 L22.914738,44.3189568 L22.9947992,44.4743862 L22.8951825,44.6719845 Z M23.0731569,44.3189568 L66.6444823,44.3189568 L44.8560985,1.11058947 L23.0731569,44.3189568 Z M66.7333563,44.3189568 L66.9393704,44.3189568 L66.9393704,44.6506437 L66.8376144,44.7019555 L66.6741272,44.3777453 L66.7333563,44.3189568 Z" id="Combined-Shape" stroke="#121212" fill="#FFFFFF"></path>
                            <g id="stripes_triange" transform="translate(22.428021, 44.476827)">
                                <mask id="mask-4" fill="white">
                                    <use xlink:href="#path-3"></use>
                                </mask>
                                <use id="Mask" fill="#FFFFFF" xlink:href="#path-3"></use>
                                <path d="M-11.7315804,43.3488694 L59.0568621,43.3488694 L59.0568621,44.0438198 L-11.7315804,44.0438198 L-11.7315804,43.3488694 Z M-11.7315804,46.4413988 L59.0568621,46.4413988 L59.0568621,47.1363492 L-11.7315804,47.1363492 L-11.7315804,46.4413988 Z M-11.7315804,49.5339282 L59.0568621,49.5339282 L59.0568621,50.2288786 L-11.7315804,50.2288786 L-11.7315804,49.5339282 Z M-11.7315804,40.25634 L59.0568621,40.25634 L59.0568621,40.9512904 L-11.7315804,40.9512904 L-11.7315804,40.25634 Z M-11.7315804,37.1638105 L59.0568621,37.1638105 L59.0568621,37.858761 L-11.7315804,37.858761 L-11.7315804,37.1638105 Z M-11.7315804,34.0712811 L59.0568621,34.0712811 L59.0568621,34.7662316 L-11.7315804,34.7662316 L-11.7315804,34.0712811 Z M-11.7315804,30.9787517 L59.0568621,30.9787517 L59.0568621,31.6737022 L-11.7315804,31.6737022 L-11.7315804,30.9787517 Z M-11.7315804,27.8862223 L59.0568621,27.8862223 L59.0568621,28.5811728 L-11.7315804,28.5811728 L-11.7315804,27.8862223 Z M-11.7315804,24.7936929 L59.0568621,24.7936929 L59.0568621,25.4886434 L-11.7315804,25.4886434 L-11.7315804,24.7936929 Z M-11.7315804,21.7011635 L59.0568621,21.7011635 L59.0568621,22.396114 L-11.7315804,22.396114 L-11.7315804,21.7011635 Z M-11.7315804,18.6086341 L59.0568621,18.6086341 L59.0568621,19.3035846 L-11.7315804,19.3035846 L-11.7315804,18.6086341 Z M-11.7315804,15.5161047 L59.0568621,15.5161047 L59.0568621,16.2110552 L-11.7315804,16.2110552 L-11.7315804,15.5161047 Z M-11.7315804,12.4235753 L59.0568621,12.4235753 L59.0568621,13.1185258 L-11.7315804,13.1185258 L-11.7315804,12.4235753 Z M-11.7315804,9.33104593 L59.0568621,9.33104593 L59.0568621,10.0259964 L-11.7315804,10.0259964 L-11.7315804,9.33104593 Z M-11.7315804,6.23851653 L59.0568621,6.23851653 L59.0568621,6.93346696 L-11.7315804,6.93346696 L-11.7315804,6.23851653 Z M-11.7315804,3.14598713 L59.0568621,3.14598713 L59.0568621,3.84093755 L-11.7315804,3.84093755 L-11.7315804,3.14598713 Z M-11.7315804,0.0534577252 L59.0568621,0.0534577252 L59.0568621,0.748408153 L-11.7315804,0.748408153 L-11.7315804,0.0534577252 Z M-11.7315804,-3.03907168 L59.0568621,-3.03907168 L59.0568621,-2.34412125 L-11.7315804,-2.34412125 L-11.7315804,-3.03907168 Z M-11.7315804,-6.13160108 L59.0568621,-6.13160108 L59.0568621,-5.43665065 L-11.7315804,-5.43665065 L-11.7315804,-6.13160108 Z M-11.7315804,-9.22413048 L59.0568621,-9.22413048 L59.0568621,-8.52918005 L-11.7315804,-8.52918005 L-11.7315804,-9.22413048 Z M-11.7315804,-12.3166599 L59.0568621,-12.3166599 L59.0568621,-11.6217095 L-11.7315804,-11.6217095 L-11.7315804,-12.3166599 Z" id="Combined-Shape" fill="#121212" mask="url(#mask-4)" transform="translate(23.662641, 18.956109) rotate(-315.000000) translate(-23.662641, -18.956109) "></path>
                            </g>
                        </g>
                        <g id="F">
                            <rect id="big_square" stroke="#121212" stroke-width="2" fill="#121212" x="1" y="1" width="87.7120855" height="86.9536547"></rect>
                            <rect id="black_square" fill="#FFFFFF" x="0.690092965" y="44.4768274" width="44.5109963" height="43.7925685"></rect>
                            <g id="stripes" transform="translate(44.856043, 44.476827)">
                                <mask id="mask-6" fill="white">
                                    <use xlink:href="#path-5"></use>
                                </mask>
                                <use id="Mask" fill="#FFFFFF" transform="translate(22.082975, 21.896284) rotate(-360.000000) translate(-22.082975, -21.896284) " xlink:href="#path-5"></use>
                                <path d="M-12.218254,46.3464081 L58.5701885,46.3464081 L58.5701885,47.0413585 L-12.218254,47.0413585 L-12.218254,46.3464081 Z M-12.218254,49.4389375 L58.5701885,49.4389375 L58.5701885,50.1338879 L-12.218254,50.1338879 L-12.218254,49.4389375 Z M-12.218254,52.5314669 L58.5701885,52.5314669 L58.5701885,53.2264173 L-12.218254,53.2264173 L-12.218254,52.5314669 Z M-12.218254,43.2538787 L58.5701885,43.2538787 L58.5701885,43.9488291 L-12.218254,43.9488291 L-12.218254,43.2538787 Z M-12.218254,40.1613493 L58.5701885,40.1613493 L58.5701885,40.8562997 L-12.218254,40.8562997 L-12.218254,40.1613493 Z M-12.218254,37.0688199 L58.5701885,37.0688199 L58.5701885,37.7637703 L-12.218254,37.7637703 L-12.218254,37.0688199 Z M-12.218254,33.9762904 L58.5701885,33.9762904 L58.5701885,34.6712409 L-12.218254,34.6712409 L-12.218254,33.9762904 Z M-12.218254,30.883761 L58.5701885,30.883761 L58.5701885,31.5787115 L-12.218254,31.5787115 L-12.218254,30.883761 Z M-12.218254,27.7912316 L58.5701885,27.7912316 L58.5701885,28.4861821 L-12.218254,28.4861821 L-12.218254,27.7912316 Z M-12.218254,24.6987022 L58.5701885,24.6987022 L58.5701885,25.3936527 L-12.218254,25.3936527 L-12.218254,24.6987022 Z M-12.218254,21.6061728 L58.5701885,21.6061728 L58.5701885,22.3011233 L-12.218254,22.3011233 L-12.218254,21.6061728 Z M-12.218254,18.5136434 L58.5701885,18.5136434 L58.5701885,19.2085939 L-12.218254,19.2085939 L-12.218254,18.5136434 Z M-12.218254,15.421114 L58.5701885,15.421114 L58.5701885,16.1160645 L-12.218254,16.1160645 L-12.218254,15.421114 Z M-12.218254,12.3285846 L58.5701885,12.3285846 L58.5701885,13.0235351 L-12.218254,13.0235351 L-12.218254,12.3285846 Z M-12.218254,9.23605523 L58.5701885,9.23605523 L58.5701885,9.93100566 L-12.218254,9.93100566 L-12.218254,9.23605523 Z M-12.218254,6.14352583 L58.5701885,6.14352583 L58.5701885,6.83847626 L-12.218254,6.83847626 L-12.218254,6.14352583 Z M-12.218254,3.05099643 L58.5701885,3.05099643 L58.5701885,3.74594686 L-12.218254,3.74594686 L-12.218254,3.05099643 Z M-12.218254,-0.0415329723 L58.5701885,-0.0415329723 L58.5701885,0.653417455 L-12.218254,0.653417455 L-12.218254,-0.0415329723 Z M-12.218254,-3.13406237 L58.5701885,-3.13406237 L58.5701885,-2.43911195 L-12.218254,-2.43911195 L-12.218254,-3.13406237 Z M-12.218254,-6.22659178 L58.5701885,-6.22659178 L58.5701885,-5.53164135 L-12.218254,-5.53164135 L-12.218254,-6.22659178 Z M-12.218254,-9.31912118 L58.5701885,-9.31912118 L58.5701885,-8.62417075 L-12.218254,-8.62417075 L-12.218254,-9.31912118 Z" id="Combined-Shape" fill="#121212" mask="url(#mask-6)" transform="translate(23.175967, 21.953648) rotate(-45.000000) translate(-23.175967, -21.953648) "></path>
                            </g>
                        </g>
                        <rect id="big_square" stroke="#121212" x="0.5" y="0.5" width="88.7120855" height="87.9536547"></rect>
                    </g>
                    <g id="writing" transform="translate(0.000000, 100.000000)" fill="#121212">
                        <path d="M8.02224886,0.285504965 L8.02224886,1.67496246 L2.2352337,1.67496246 C1.99822284,1.67496246 1.85996651,1.6559288 1.74146108,1.61786147 L1.70195927,1.63689513 C1.74146108,1.75109712 1.76121198,1.90336643 1.76121198,2.11273674 L1.76121198,5.46266167 C1.76121198,5.67203197 1.74146108,5.84333495 1.70195927,5.93850327 L1.74146108,5.9765706 C1.85996651,5.91946961 1.99822284,5.90043595 2.2352337,5.90043595 L7.52847623,5.90043595 L7.52847623,7.28989344 L2.2352337,7.28989344 C1.99822284,7.28989344 1.85996651,7.28989344 1.74146108,7.23279245 L1.70195927,7.27085978 C1.74146108,7.3660281 1.76121198,7.51829742 1.76121198,7.72766772 L1.76121198,13.60907 L0.240392299,13.60907 L0.240392299,0.285504965 L8.02224886,0.285504965 Z M18.6950141,0 C22.882206,0 25.9040945,2.91215064 25.9040945,6.94728748 C25.9040945,10.9824243 22.882206,13.894575 18.6950141,13.894575 C14.5078223,13.894575 11.4859338,10.9824243 11.4859338,6.94728748 C11.4859338,2.91215064 14.5078223,0 18.6950141,0 Z M18.6950141,1.48462582 C15.4558657,1.48462582 13.1450099,3.76866554 13.1450099,6.94728748 C13.1450099,10.1259094 15.4558657,12.4099492 18.6950141,12.4099492 C21.9539135,12.4099492 24.2647694,10.1259094 24.2647694,6.94728748 C24.2647694,3.76866554 21.9539135,1.48462582 18.6950141,1.48462582 Z M40.8233043,0.285504965 L40.8233043,8.67935094 C40.8233043,11.8960402 38.7692102,13.8755413 35.5103109,13.8755413 C32.2711625,13.8755413 30.1973175,11.8960402 30.1973175,8.67935094 L30.1973175,0.285504965 L31.7773898,0.285504965 L31.7773898,8.58418262 C31.7773898,10.9824243 33.2192059,12.3909155 35.5103109,12.3909155 C37.8014159,12.3909155 39.2432319,10.9824243 39.2432319,8.58418262 L39.2432319,0.285504965 L40.8233043,0.285504965 Z M46.0645707,0.0951683217 L54.4982072,9.17422621 C54.952478,9.66910149 55.4067488,10.2591451 55.5845069,10.6778857 L55.6437597,10.658852 C55.5252542,10.0688084 55.4857524,9.36456286 55.4857524,8.26061032 L55.4857524,0.285504965 L57.0065721,0.285504965 L57.0065721,13.7994066 L56.828814,13.7994066 L48.4149284,4.72034876 C47.9606576,4.22547348 47.5063868,3.63542989 47.3286287,3.21668927 L47.249625,3.23572294 C47.3681305,3.82576653 47.4273832,4.53001211 47.4273832,5.61493098 L47.4273832,13.60907 L45.9065635,13.60907 L45.9065635,0.0951683217 L46.0645707,0.0951683217 Z M66.4942831,0.285504965 C70.7604786,0.285504965 73.5453562,2.93118431 73.5453562,6.94728748 C73.5453562,10.9633907 70.7604786,13.60907 66.4942831,13.60907 L62.2478385,13.60907 L62.2478385,0.285504965 L66.4942831,0.285504965 Z M63.7489073,1.61786147 L63.7094055,1.63689513 C63.7489073,1.75109712 63.7686582,1.90336643 63.7686582,2.11273674 L63.7686582,11.7818382 C63.7686582,11.9912085 63.7489073,12.1434779 63.7094055,12.2576798 L63.7489073,12.2767135 C63.8674127,12.2386462 63.9661673,12.2196125 64.2426799,12.2196125 L66.514034,12.2196125 C69.832186,12.2196125 71.8862802,10.2020441 71.8862802,6.94728748 C71.8862802,3.69253088 69.8124351,1.67496246 66.514034,1.67496246 L64.2426799,1.67496246 C63.9661673,1.67496246 63.8674127,1.6559288 63.7489073,1.61786147 Z M85.6994393,0.285504965 L85.6994393,1.67496246 L79.9914278,1.67496246 C79.7544169,1.67496246 79.6161606,1.6559288 79.4976552,1.61786147 L79.4581534,1.63689513 C79.4976552,1.75109712 79.5174061,1.90336643 79.5174061,2.11273674 L79.5174061,5.1771567 C79.5174061,5.36749334 79.4976552,5.53879632 79.4581534,5.63396465 L79.4976552,5.67203197 C79.6161606,5.61493098 79.7544169,5.61493098 79.9914278,5.61493098 L85.0674104,5.61493098 L85.0674104,6.98535481 L79.9914278,6.98535481 C79.7544169,6.98535481 79.6161606,6.98535481 79.4976552,6.92825382 L79.4581534,6.96632115 C79.4976552,7.06148947 79.5174061,7.23279245 79.5174061,7.44216276 L79.5174061,11.7818382 C79.5174061,11.9912085 79.4976552,12.1434779 79.4581534,12.2576798 L79.4976552,12.2767135 C79.6161606,12.2386462 79.7544169,12.2196125 79.9914278,12.2196125 L85.778443,12.2196125 L85.778443,13.60907 L77.9965864,13.60907 L77.9965864,0.285504965 L85.6994393,0.285504965 Z M94.7131286,0.285504965 C97.2017426,0.285504965 98.7620641,1.63689513 98.7620641,3.8448002 C98.7620641,5.95753694 97.0437354,7.28989344 95.1871503,7.28989344 C94.9501395,7.28989344 94.7131286,7.25182611 94.4958687,7.19472512 L94.4958687,7.27085978 C94.9106377,7.42312909 95.2266521,7.70863406 95.6019193,8.14640834 L100.045873,13.60907 L98.0707825,13.60907 L93.0343017,7.3660281 L92.2442655,7.3660281 C91.9677528,7.3660281 91.8492474,7.3660281 91.7504929,7.30892711 L91.7109911,7.34699444 C91.7504929,7.46119642 91.7702438,7.61346574 91.7702438,7.82283604 L91.7702438,13.60907 L90.2494241,13.60907 L90.2494241,0.285504965 L94.7131286,0.285504965 Z M91.7504929,1.61786147 L91.7109911,1.63689513 C91.7504929,1.75109712 91.7702438,1.90336643 91.7702438,2.11273674 L91.7702438,5.51976266 C91.7702438,5.72913297 91.7504929,5.90043595 91.7109911,5.99560427 L91.7504929,6.0336716 C91.8689983,5.9765706 91.9875037,5.95753694 92.2442655,5.95753694 L94.7328795,5.95753694 C96.2536992,5.95753694 97.1424899,5.1771567 97.1424899,3.82576653 C97.1424899,2.53147736 96.293201,1.67496246 94.7328795,1.67496246 L92.2442655,1.67496246 C91.9677528,1.67496246 91.8689983,1.6559288 91.7504929,1.61786147 Z M107.459739,0 C108.723797,0 109.908851,0.342605958 110.9754,0.837481231 L110.264367,2.24597239 C109.316324,1.75109712 108.368281,1.48462582 107.439988,1.48462582 C106.077176,1.48462582 105.366143,2.05563575 105.366143,3.00731897 C105.366143,3.76866554 105.761161,4.32064181 106.82771,5.06295471 L109.099064,6.68081618 C110.718638,7.82283604 111.429671,8.83162025 111.429671,10.3162461 C111.429671,12.6002858 109.731093,13.894575 107.143724,13.894575 C105.504399,13.894575 103.924327,13.380666 102.778774,12.6764205 L103.509558,11.3059966 C104.536605,11.9150739 105.820414,12.4099492 107.143724,12.4099492 C108.862053,12.4099492 109.810097,11.5915016 109.810097,10.4114144 C109.810097,9.51683217 109.296573,8.83162025 108.032515,7.93703803 L105.780912,6.28110923 C104.398349,5.29135869 103.726818,4.3777428 103.726818,3.06441996 C103.726818,1.16105352 105.109381,0 107.459739,0 Z M122.741742,13.60907 L129.101533,0 L129.25954,0 L135.619332,13.60907 L133.920754,13.60907 L132.143172,9.66910149 L126.237652,9.66910149 L124.44032,13.60907 L122.741742,13.60907 Z M126.652421,8.45094697 C126.830179,8.4319133 127.165944,8.41287964 127.758472,8.41287964 L130.602602,8.41287964 C131.21488,8.41287964 131.530894,8.4319133 131.708653,8.45094697 L131.728403,8.4319133 C131.570396,8.222543 131.392638,7.93703803 131.116125,7.32796077 L129.733562,4.16837249 C129.437298,3.46412691 129.25954,2.93118431 129.220039,2.58857835 L129.141035,2.58857835 C129.101533,2.93118431 128.943526,3.46412691 128.627511,4.16837249 L127.244948,7.32796077 C126.988186,7.93703803 126.810428,8.222543 126.652421,8.4319133 L126.652421,8.45094697 Z M139.715046,0.0951683217 L148.148682,9.17422621 C148.602953,9.66910149 149.057224,10.2591451 149.234982,10.6778857 L149.294235,10.658852 C149.175729,10.0688084 149.136227,9.36456286 149.136227,8.26061032 L149.136227,0.285504965 L150.657047,0.285504965 L150.657047,13.7994066 L150.479289,13.7994066 L142.065403,4.72034876 C141.611133,4.22547348 141.156862,3.63542989 140.979104,3.21668927 L140.9001,3.23572294 C141.018605,3.82576653 141.077858,4.53001211 141.077858,5.61493098 L141.077858,13.60907 L139.557038,13.60907 L139.557038,0.0951683217 L139.715046,0.0951683217 Z M160.144758,0.285504965 C164.410953,0.285504965 167.195831,2.93118431 167.195831,6.94728748 C167.195831,10.9633907 164.410953,13.60907 160.144758,13.60907 L155.898313,13.60907 L155.898313,0.285504965 L160.144758,0.285504965 Z M157.399382,1.61786147 L157.35988,1.63689513 C157.399382,1.75109712 157.419133,1.90336643 157.419133,2.11273674 L157.419133,11.7818382 C157.419133,11.9912085 157.399382,12.1434779 157.35988,12.2576798 L157.399382,12.2767135 C157.517888,12.2386462 157.616642,12.2196125 157.893155,12.2196125 L160.164509,12.2196125 C163.482661,12.2196125 165.536755,10.2020441 165.536755,6.94728748 C165.536755,3.69253088 163.46291,1.67496246 160.164509,1.67496246 L157.893155,1.67496246 C157.616642,1.67496246 157.517888,1.6559288 157.399382,1.61786147 Z M186.507018,13.894575 C182.102567,13.894575 179.12018,11.0775926 179.12018,6.94728748 C179.12018,2.81698232 182.102567,0 186.507018,0 C188.343853,0 189.884423,0.475841609 191.326239,1.50365948 L190.397947,2.77891499 C189.173391,1.90336643 187.889582,1.48462582 186.447766,1.48462582 C183.090112,1.48462582 180.779256,3.73059821 180.779256,6.94728748 C180.779256,10.1639768 183.090112,12.4099492 186.447766,12.4099492 C187.889582,12.4099492 189.173391,11.9912085 190.397947,11.11566 L191.326239,12.3909155 C189.884423,13.4187334 188.343853,13.894575 186.507018,13.894575 Z M202.097759,0 C206.284951,0 209.306839,2.91215064 209.306839,6.94728748 C209.306839,10.9824243 206.284951,13.894575 202.097759,13.894575 C197.910567,13.894575 194.888679,10.9824243 194.888679,6.94728748 C194.888679,2.91215064 197.910567,0 202.097759,0 Z M202.097759,1.48462582 C198.858611,1.48462582 196.547755,3.76866554 196.547755,6.94728748 C196.547755,10.1259094 198.858611,12.4099492 202.097759,12.4099492 C205.356658,12.4099492 207.667514,10.1259094 207.667514,6.94728748 C207.667514,3.76866554 205.356658,1.48462582 202.097759,1.48462582 Z M218.004514,0.285504965 C222.27071,0.285504965 225.055587,2.93118431 225.055587,6.94728748 C225.055587,10.9633907 222.27071,13.60907 218.004514,13.60907 L213.75807,13.60907 L213.75807,0.285504965 L218.004514,0.285504965 Z M215.259138,1.61786147 L215.219637,1.63689513 C215.259138,1.75109712 215.278889,1.90336643 215.278889,2.11273674 L215.278889,11.7818382 C215.278889,11.9912085 215.259138,12.1434779 215.219637,12.2576798 L215.259138,12.2767135 C215.377644,12.2386462 215.476398,12.2196125 215.752911,12.2196125 L218.024265,12.2196125 C221.342417,12.2196125 223.396511,10.2020441 223.396511,6.94728748 C223.396511,3.69253088 221.322666,1.67496246 218.024265,1.67496246 L215.752911,1.67496246 C215.476398,1.67496246 215.377644,1.6559288 215.259138,1.61786147 Z M237.20967,0.285504965 L237.20967,1.67496246 L231.501659,1.67496246 C231.264648,1.67496246 231.126392,1.6559288 231.007886,1.61786147 L230.968384,1.63689513 C231.007886,1.75109712 231.027637,1.90336643 231.027637,2.11273674 L231.027637,5.1771567 C231.027637,5.36749334 231.007886,5.53879632 230.968384,5.63396465 L231.007886,5.67203197 C231.126392,5.61493098 231.264648,5.61493098 231.501659,5.61493098 L236.577641,5.61493098 L236.577641,6.98535481 L231.501659,6.98535481 C231.264648,6.98535481 231.126392,6.98535481 231.007886,6.92825382 L230.968384,6.96632115 C231.007886,7.06148947 231.027637,7.23279245 231.027637,7.44216276 L231.027637,11.7818382 C231.027637,11.9912085 231.007886,12.1434779 230.968384,12.2576798 L231.007886,12.2767135 C231.126392,12.2386462 231.264648,12.2196125 231.501659,12.2196125 L237.288674,12.2196125 L237.288674,13.60907 L229.506817,13.60907 L229.506817,0.285504965 L237.20967,0.285504965 Z M246.22336,0.285504965 C248.711974,0.285504965 250.272295,1.63689513 250.272295,3.8448002 C250.272295,5.95753694 248.553966,7.28989344 246.697381,7.28989344 C246.460371,7.28989344 246.22336,7.25182611 246.0061,7.19472512 L246.0061,7.27085978 C246.420869,7.42312909 246.736883,7.70863406 247.11215,8.14640834 L251.556104,13.60907 L249.581014,13.60907 L244.544533,7.3660281 L243.754497,7.3660281 C243.477984,7.3660281 243.359478,7.3660281 243.260724,7.30892711 L243.221222,7.34699444 C243.260724,7.46119642 243.280475,7.61346574 243.280475,7.82283604 L243.280475,13.60907 L241.759655,13.60907 L241.759655,0.285504965 L246.22336,0.285504965 Z M243.260724,1.61786147 L243.221222,1.63689513 C243.260724,1.75109712 243.280475,1.90336643 243.280475,2.11273674 L243.280475,5.51976266 C243.280475,5.72913297 243.260724,5.90043595 243.221222,5.99560427 L243.260724,6.0336716 C243.379229,5.9765706 243.497735,5.95753694 243.754497,5.95753694 L246.243111,5.95753694 C247.76393,5.95753694 248.652721,5.1771567 248.652721,3.82576653 C248.652721,2.53147736 247.803432,1.67496246 246.243111,1.67496246 L243.754497,1.67496246 C243.477984,1.67496246 243.379229,1.6559288 243.260724,1.61786147 Z M258.96997,0 C260.234028,0 261.419082,0.342605958 262.485631,0.837481231 L261.774599,2.24597239 C260.826555,1.75109712 259.878512,1.48462582 258.950219,1.48462582 C257.587407,1.48462582 256.876374,2.05563575 256.876374,3.00731897 C256.876374,3.76866554 257.271392,4.32064181 258.337941,5.06295471 L260.609295,6.68081618 C262.228869,7.82283604 262.939902,8.83162025 262.939902,10.3162461 C262.939902,12.6002858 261.241324,13.894575 258.653956,13.894575 C257.01463,13.894575 255.434558,13.380666 254.289006,12.6764205 L255.019789,11.3059966 C256.046836,11.9150739 257.330645,12.4099492 258.653956,12.4099492 C260.372284,12.4099492 261.320328,11.5915016 261.320328,10.4114144 C261.320328,9.51683217 260.806804,8.83162025 259.542746,7.93703803 L257.291143,6.28110923 C255.90858,5.29135869 255.237049,4.3777428 255.237049,3.06441996 C255.237049,1.16105352 256.619612,0 258.96997,0 Z" id="FOUNDERS-AND-CODERS"></path>
                    </g>
                </g>
            </g>
        </g>
    </g>
</svg>