<svg enable-background="new 0 0 83 96" viewBox="0 0 83 96" xmlns="http://www.w3.org/2000/svg"><g fill="#1e1e1e"><path d="m30.8 38.3v13.6l11.8 6.8 10.8-6.2-11.3-6.4c-.5-.3-.6-.9-.3-1.4s.9-.6 1.4-.4l11.3 6.4v-12.4l-11.8-6.8z"/><path d="m36.9 27.6-11.8-6.8-10.8 6.2 11.3 6.4c.5.3.7.9.4 1.4-.2.3-.5.5-.9.5-.2 0-.4 0-.5-.1l-11.3-6.4v12.5l11.8 6.7 3.7-2.1v-8.2c0-.4.2-.7.5-.9l7.6-4.4z"/><path d="m48.5 27.6v4.9l7.5 4.3c.3.2.5.5.5.9v8.1l3.8 2.2 10.8-6.2-11.3-6.4c-.5-.3-.6-.9-.3-1.4s.9-.6 1.4-.4l11.2 6.4v-12.4l-11.8-6.8z"/><path d="m38.9 27v4.3l3.2-1.8c.3-.2.7-.2 1 0l3.3 1.9v-4.4c0-.4.2-.7.5-.9l7.5-4.3v-5.3l-11.7-6.9-10.8 6.2 11.3 6.4c.5.3.7.9.4 1.4-.2.3-.5.5-.9.5-.2 0-.4 0-.5-.1l-11.3-6.5v4.1l7.6 4.4c.2.3.4.6.4 1z"/><path d="m18.6 73.6c-.9-.2-1.8-.2-2.7 0-1.3.2-2.2 1.3-2.2 2.5v4c0 1.3 1 2.4 2.3 2.6.9.2 1.8.2 2.7 0l.3-.1c1.1-.3 1.9-1.3 2-2.4v-.4h-1.6v.4c0 .6-.7.9-1 1h-.1c-.6.2-1.2.2-1.9 0-.5-.1-1.1-.4-1.1-1v-3.9c0-.6.7-.9 1.1-1 .6-.2 1.3-.2 1.9 0 .4.1 1.1.4 1.1 1v.4h1.6v-.4c-.2-1.4-1.1-2.5-2.4-2.7z"/><path d="m33.4 79.9c0 1.8-4 1.7-4 .1v-6.5h-1.6v6.5c0 1.9 1.8 2.8 3.6 2.8.7 0 1.4-.2 2-.5v.4h1.6v-9.2h-1.6z"/><path d="m47.1 73.9c-1.2-.4-2.5-.4-3.6.2v-4.3h-1.6v12.9h1.6v-.5c.7.4 1.5.6 2.3.6.4 0 .8 0 1.2-.1 1.3-.2 2.2-1.2 2.3-2.5v-3.8c-.2-1.2-1-2.2-2.2-2.5zm-3.6 2.4c0-.7 1-1.1 2-1.1.5 0 1 .1 1.4.3.3.2.5.5.5.9v3.9c0 .6-.7.9-1.1 1-.3.1-.6.1-.9.1-.7 0-2-.3-2-1.5z"/><path d="m56 69.9h1.7v2.3h-1.7z"/><path d="m56.1 73.5h1.6v9.2h-1.6z"/><path d="m72 74.1v-.5h-1.7l-4 3.7v-7.4h-1.6v12.9h1.6v-3c0-.2 0-.4.2-.6.8-.7 1.9-.8 2.9-.5.4.1.9.4.9 1v3h1.6v-3.1c0-.7-.4-1.4-.9-1.8-.6-.5-1.4-.7-2.2-.8l3.1-2.9zm-1.4 5.6h-.4z"/></g></svg>